<svg width="90" height="90" viewBox="0 0 90 90" fill="none" xmlns="http://www.w3.org/2000/svg">
<path d="M23.9382 53.0452H66.866C68.6273 53.0452 70.3168 53.745 71.5623 54.9905C72.8076 56.236 73.5076 57.9255 73.5076 59.6868V61.9065C73.5076 67.2013 70.9605 71.6773 66.1482 74.7991C61.3635 77.8965 54.3619 79.6506 45.4021 79.6506C36.4428 79.6506 29.4403 77.894 24.655 74.7991H24.656C19.8439 71.6804 17.2966 67.2047 17.2966 61.9065V59.6868C17.2966 57.9254 17.9965 56.236 19.2419 54.9905C20.4875 53.745 22.1768 53.0452 23.9382 53.0452ZM45.4021 10.1174C45.593 10.1175 45.7759 10.1935 45.9109 10.3284C46.046 10.4635 46.1218 10.6471 46.1218 10.8381V14.5579H60.9451C62.7063 14.558 64.3959 15.2578 65.6414 16.5032C66.8868 17.7486 67.5856 19.4382 67.5857 21.1995V37.4827C67.5857 39.244 66.8867 40.9335 65.6414 42.179C64.3959 43.4244 62.7063 44.1242 60.9451 44.1243H29.8591C28.987 44.1243 28.1229 43.9522 27.3171 43.6184C26.5115 43.2847 25.7795 42.7956 25.1628 42.179C23.9174 40.9335 23.2176 39.2441 23.2175 37.4827V21.1995C23.2176 19.4381 23.9174 17.7486 25.1628 16.5032C26.4083 15.2577 28.0978 14.5579 29.8591 14.5579H44.6814V10.8381C44.6814 10.6471 44.7573 10.4635 44.8923 10.3284C45.0274 10.1933 45.211 10.1174 45.4021 10.1174ZM36.5203 23.4006C34.9447 23.4006 33.4332 24.0258 32.3191 25.1399C31.205 26.254 30.5798 27.7655 30.5798 29.3411C30.5798 30.9166 31.205 32.4281 32.3191 33.5422C33.4332 34.6563 34.9447 35.2815 36.5203 35.2815C38.0959 35.2815 39.6073 34.6564 40.7214 33.5422C41.8355 32.4281 42.4607 30.9167 42.4607 29.3411C42.4607 27.7655 41.8355 26.254 40.7214 25.1399C39.6073 24.0258 38.0958 23.4006 36.5203 23.4006ZM54.2839 23.4006C52.7085 23.4006 51.1969 24.0259 50.0828 25.1399C48.9687 26.254 48.3425 27.7655 48.3425 29.3411C48.3425 30.9167 48.9687 32.4281 50.0828 33.5422C51.1969 34.6562 52.7084 35.2815 54.2839 35.2815C55.8593 35.2814 57.3701 34.6561 58.4841 33.5422C59.5982 32.4281 60.2244 30.9167 60.2244 29.3411C60.2244 27.7655 59.5982 26.254 58.4841 25.1399C57.3702 24.0261 55.8592 23.4008 54.2839 23.4006Z" stroke="#2D6A9E" stroke-width="3"/>
</svg>
