<svg width="30" height="30" viewBox="0 0 30 30" fill="none" xmlns="http://www.w3.org/2000/svg">
<rect width="30" height="30" rx="15" fill="#0A2B42"/>
<mask id="path-2-inside-1_164_501" fill="white">
<path d="M14.4615 22.5V9.52331L8.80769 15.0847L8 14.3856L15 7.5L22 14.3856L21.1923 15.0847L15.5385 9.52331V22.5H14.4615Z"/>
</mask>
<path d="M14.4615 22.5H12.4615C12.4615 23.6046 13.357 24.5 14.4615 24.5V22.5ZM14.4615 9.52331H16.4615C16.4615 8.71738 15.9778 7.99019 15.2345 7.67871C14.4912 7.36724 13.6336 7.53233 13.059 8.09749L14.4615 9.52331ZM8.80769 15.0847L7.49874 16.5969C8.28694 17.2792 9.46701 17.2416 10.2102 16.5106L8.80769 15.0847ZM8 14.3856L6.59749 12.9598C6.1995 13.3513 5.98324 13.8913 6.00101 14.4493C6.01878 15.0072 6.26895 15.5324 6.69105 15.8978L8 14.3856ZM15 7.5L16.4025 6.07418C15.6242 5.30861 14.3758 5.30861 13.5975 6.07418L15 7.5ZM22 14.3856L23.309 15.8978C23.731 15.5324 23.9812 15.0072 23.999 14.4493C24.0168 13.8913 23.8005 13.3513 23.4025 12.9598L22 14.3856ZM21.1923 15.0847L19.7898 16.5106C20.533 17.2416 21.7131 17.2792 22.5013 16.5969L21.1923 15.0847ZM15.5385 9.52331L16.941 8.09749C16.3664 7.53233 15.5088 7.36724 14.7655 7.67871C14.0222 7.99019 13.5385 8.71738 13.5385 9.52331H15.5385ZM15.5385 22.5V24.5C16.643 24.5 17.5385 23.6046 17.5385 22.5H15.5385ZM14.4615 22.5H16.4615V9.52331H14.4615H12.4615V22.5H14.4615ZM14.4615 9.52331L13.059 8.09749L7.40518 13.6589L8.80769 15.0847L10.2102 16.5106L15.8641 10.9491L14.4615 9.52331ZM8.80769 15.0847L10.1166 13.5726L9.30895 12.8734L8 14.3856L6.69105 15.8978L7.49874 16.5969L8.80769 15.0847ZM8 14.3856L9.40251 15.8114L16.4025 8.92582L15 7.5L13.5975 6.07418L6.59749 12.9598L8 14.3856ZM15 7.5L13.5975 8.92582L20.5975 15.8114L22 14.3856L23.4025 12.9598L16.4025 6.07418L15 7.5ZM22 14.3856L20.691 12.8734L19.8834 13.5726L21.1923 15.0847L22.5013 16.5969L23.309 15.8978L22 14.3856ZM21.1923 15.0847L22.5948 13.6589L16.941 8.09749L15.5385 9.52331L14.1359 10.9491L19.7898 16.5106L21.1923 15.0847ZM15.5385 9.52331H13.5385V22.5H15.5385H17.5385V9.52331H15.5385ZM15.5385 22.5V20.5H14.4615V22.5V24.5H15.5385V22.5Z" fill="white" mask="url(#path-2-inside-1_164_501)"/>
</svg>
