<svg width="193" height="138" viewBox="0 0 193 138" fill="none" xmlns="http://www.w3.org/2000/svg">
<rect x="3.5" y="0.5" width="186" height="29" rx="3.5" stroke="#EBF1F7"/>
<rect x="38.5" y="8" width="116" height="14" rx="7" fill="url(#paint0_linear_164_379)"/>
<g filter="url(#filter0_d_164_379)">
<rect x="3" y="36" width="187" height="30" rx="4" fill="#0A2B42" shape-rendering="crispEdges"/>
<path d="M51.1165 54.562C51.5832 54.562 51.9658 54.5247 52.2645 54.45C52.5725 54.3753 52.8758 54.268 53.1745 54.128L53.4685 55.164C53.1418 55.3227 52.7825 55.4393 52.3905 55.514C52.0078 55.5887 51.5365 55.626 50.9765 55.626C50.3978 55.626 49.8518 55.528 49.3385 55.332C48.8252 55.136 48.3772 54.8467 47.9945 54.464C47.6212 54.0813 47.3225 53.61 47.0985 53.05C46.8838 52.4807 46.7765 51.8273 46.7765 51.09C46.7765 50.3713 46.8838 49.732 47.0985 49.172C47.3132 48.6027 47.6072 48.1267 47.9805 47.744C48.3632 47.352 48.8158 47.058 49.3385 46.862C49.8612 46.6567 50.4305 46.554 51.0465 46.554C51.6252 46.554 52.1012 46.6007 52.4745 46.694C52.8478 46.7873 53.1932 46.9133 53.5105 47.072L53.2025 48.08C53.0252 48.0053 52.8572 47.94 52.6985 47.884C52.5492 47.8187 52.3952 47.7673 52.2365 47.73C52.0872 47.6927 51.9285 47.6647 51.7605 47.646C51.6018 47.6273 51.4198 47.618 51.2145 47.618C50.8038 47.618 50.4118 47.6833 50.0385 47.814C49.6745 47.9353 49.3525 48.136 49.0725 48.416C48.8018 48.696 48.5825 49.06 48.4145 49.508C48.2558 49.9467 48.1765 50.4787 48.1765 51.104C48.1765 51.7387 48.2558 52.2753 48.4145 52.714C48.5732 53.1527 48.7832 53.5073 49.0445 53.778C49.3152 54.0487 49.6278 54.2493 49.9825 54.38C50.3372 54.5013 50.7152 54.562 51.1165 54.562ZM56.3015 55.5H55.0695V45.56H56.3015V49.76C56.6095 49.4893 56.9502 49.2653 57.3235 49.088C57.6968 48.9107 58.1075 48.822 58.5555 48.822C58.9195 48.822 59.2368 48.878 59.5075 48.99C59.7782 49.0927 59.9975 49.242 60.1655 49.438C60.3428 49.6247 60.4735 49.8487 60.5575 50.11C60.6508 50.3713 60.6975 50.656 60.6975 50.964V55.5H59.4655V51.272C59.4655 50.768 59.3628 50.404 59.1575 50.18C58.9522 49.9467 58.6395 49.83 58.2195 49.83C57.9022 49.83 57.5802 49.9093 57.2535 50.068C56.9362 50.2267 56.6188 50.4507 56.3015 50.74V55.5ZM68.6501 52.14C68.6501 52.6907 68.5661 53.1853 68.3981 53.624C68.2301 54.0533 67.9967 54.4173 67.6981 54.716C67.4087 55.0147 67.0681 55.2433 66.6761 55.402C66.2841 55.5513 65.8594 55.626 65.4021 55.626C64.9447 55.626 64.5201 55.556 64.1281 55.416C63.7454 55.2667 63.4094 55.052 63.1201 54.772C62.8401 54.4827 62.6161 54.1327 62.4481 53.722C62.2894 53.302 62.2101 52.8213 62.2101 52.28C62.2101 51.7293 62.2941 51.2393 62.4621 50.81C62.6301 50.3807 62.8587 50.0213 63.1481 49.732C63.4467 49.4333 63.7921 49.2093 64.1841 49.06C64.5761 48.9013 65.0007 48.822 65.4581 48.822C65.9154 48.822 66.3354 48.892 66.7181 49.032C67.1101 49.172 67.4461 49.382 67.7261 49.662C68.0154 49.942 68.2394 50.292 68.3981 50.712C68.5661 51.1227 68.6501 51.5987 68.6501 52.14ZM67.3621 52.21C67.3621 51.7713 67.3061 51.398 67.1941 51.09C67.0821 50.782 66.9327 50.53 66.7461 50.334C66.5687 50.138 66.3634 49.998 66.1301 49.914C65.8967 49.8207 65.6587 49.774 65.4161 49.774C65.1734 49.774 64.9354 49.8113 64.7021 49.886C64.4687 49.9607 64.2634 50.0913 64.0861 50.278C63.9087 50.4647 63.7641 50.7167 63.6521 51.034C63.5494 51.342 63.4981 51.734 63.4981 52.21C63.4981 52.6487 63.5541 53.0267 63.6661 53.344C63.7781 53.652 63.9227 53.904 64.1001 54.1C64.2867 54.296 64.4967 54.4407 64.7301 54.534C64.9634 54.6273 65.2014 54.674 65.4441 54.674C65.6867 54.674 65.9247 54.6367 66.1581 54.562C66.3914 54.478 66.5967 54.3427 66.7741 54.156C66.9514 53.96 67.0914 53.708 67.1941 53.4C67.3061 53.0827 67.3621 52.686 67.3621 52.21ZM76.1833 52.14C76.1833 52.6907 76.0993 53.1853 75.9313 53.624C75.7633 54.0533 75.5299 54.4173 75.2313 54.716C74.9419 55.0147 74.6013 55.2433 74.2093 55.402C73.8173 55.5513 73.3926 55.626 72.9353 55.626C72.4779 55.626 72.0533 55.556 71.6613 55.416C71.2786 55.2667 70.9426 55.052 70.6533 54.772C70.3733 54.4827 70.1493 54.1327 69.9813 53.722C69.8226 53.302 69.7433 52.8213 69.7433 52.28C69.7433 51.7293 69.8273 51.2393 69.9953 50.81C70.1633 50.3807 70.3919 50.0213 70.6813 49.732C70.9799 49.4333 71.3253 49.2093 71.7173 49.06C72.1093 48.9013 72.5339 48.822 72.9913 48.822C73.4486 48.822 73.8686 48.892 74.2513 49.032C74.6433 49.172 74.9793 49.382 75.2593 49.662C75.5486 49.942 75.7726 50.292 75.9313 50.712C76.0993 51.1227 76.1833 51.5987 76.1833 52.14ZM74.8953 52.21C74.8953 51.7713 74.8393 51.398 74.7273 51.09C74.6153 50.782 74.4659 50.53 74.2793 50.334C74.1019 50.138 73.8966 49.998 73.6633 49.914C73.4299 49.8207 73.1919 49.774 72.9493 49.774C72.7066 49.774 72.4686 49.8113 72.2353 49.886C72.0019 49.9607 71.7966 50.0913 71.6193 50.278C71.4419 50.4647 71.2973 50.7167 71.1853 51.034C71.0826 51.342 71.0313 51.734 71.0313 52.21C71.0313 52.6487 71.0873 53.0267 71.1993 53.344C71.3113 53.652 71.4559 53.904 71.6333 54.1C71.8199 54.296 72.0299 54.4407 72.2633 54.534C72.4966 54.6273 72.7346 54.674 72.9773 54.674C73.2199 54.674 73.4579 54.6367 73.6913 54.562C73.9246 54.478 74.1299 54.3427 74.3073 54.156C74.4846 53.96 74.6246 53.708 74.7273 53.4C74.8393 53.0827 74.8953 52.686 74.8953 52.21ZM81.3785 50.152C81.0705 50.0027 80.7905 49.9 80.5385 49.844C80.2865 49.788 80.0345 49.76 79.7825 49.76C79.3345 49.76 79.0031 49.844 78.7885 50.012C78.5738 50.1707 78.4665 50.3853 78.4665 50.656C78.4665 50.852 78.5411 51.0247 78.6905 51.174C78.8398 51.314 79.1525 51.454 79.6285 51.594L80.0485 51.72C80.6738 51.9067 81.1451 52.1493 81.4625 52.448C81.7891 52.7373 81.9525 53.134 81.9525 53.638C81.9525 54.2353 81.7285 54.716 81.2805 55.08C80.8418 55.444 80.2258 55.626 79.4325 55.626C79.0125 55.626 78.6065 55.5887 78.2145 55.514C77.8318 55.4393 77.5005 55.3367 77.2205 55.206L77.5145 54.24C77.7851 54.3707 78.0791 54.478 78.3965 54.562C78.7138 54.6367 79.0358 54.674 79.3625 54.674C79.7825 54.674 80.1138 54.5993 80.3565 54.45C80.6085 54.3007 80.7345 54.0533 80.7345 53.708C80.7345 53.4093 80.6271 53.1993 80.4125 53.078C80.1978 52.9473 79.8898 52.8213 79.4885 52.7L79.0545 52.56C78.4478 52.364 77.9951 52.1213 77.6965 51.832C77.4071 51.5333 77.2625 51.1507 77.2625 50.684C77.2625 50.404 77.3231 50.1473 77.4445 49.914C77.5658 49.6807 77.7291 49.4847 77.9345 49.326C78.1491 49.1673 78.4011 49.046 78.6905 48.962C78.9798 48.8687 79.2971 48.822 79.6425 48.822C79.9691 48.822 80.3051 48.8547 80.6505 48.92C81.0051 48.976 81.3411 49.074 81.6585 49.214L81.3785 50.152ZM88.9153 52.35H84.1973V52.406C84.1973 53.134 84.3933 53.694 84.7853 54.086C85.1866 54.478 85.7279 54.674 86.4093 54.674C86.7639 54.674 87.0766 54.646 87.3473 54.59C87.6273 54.534 87.9306 54.4407 88.2573 54.31L88.5093 55.22C88.2386 55.3413 87.9166 55.4393 87.5433 55.514C87.1793 55.5887 86.7873 55.626 86.3673 55.626C85.8913 55.626 85.4433 55.5607 85.0233 55.43C84.6126 55.2993 84.2486 55.0987 83.9313 54.828C83.6139 54.548 83.3619 54.1933 83.1753 53.764C82.9979 53.3347 82.9093 52.8213 82.9093 52.224C82.9093 51.7107 82.9839 51.244 83.1333 50.824C83.2919 50.404 83.5113 50.0493 83.7913 49.76C84.0713 49.4613 84.4073 49.2327 84.7993 49.074C85.2006 48.906 85.6486 48.822 86.1433 48.822C86.5633 48.822 86.9413 48.892 87.2773 49.032C87.6226 49.172 87.9166 49.368 88.1593 49.62C88.4019 49.872 88.5886 50.1753 88.7193 50.53C88.8499 50.8847 88.9153 51.2767 88.9153 51.706V52.35ZM87.6413 51.468C87.6413 51.2253 87.6086 51.0013 87.5433 50.796C87.4873 50.5813 87.3939 50.3947 87.2633 50.236C87.1419 50.0773 86.9833 49.9513 86.7873 49.858C86.5913 49.7647 86.3533 49.718 86.0733 49.718C85.5599 49.718 85.1399 49.8813 84.8133 50.208C84.4959 50.5347 84.2999 50.964 84.2253 51.496L87.6413 51.468ZM94.0755 46.68L96.2735 50.628L98.4855 46.68H99.8435L96.8615 51.804V55.5H95.5735V51.804L92.6615 46.68H94.0755ZM106.002 52.14C106.002 52.6907 105.918 53.1853 105.75 53.624C105.582 54.0533 105.348 54.4173 105.05 54.716C104.76 55.0147 104.42 55.2433 104.028 55.402C103.636 55.5513 103.211 55.626 102.754 55.626C102.296 55.626 101.872 55.556 101.48 55.416C101.097 55.2667 100.761 55.052 100.472 54.772C100.192 54.4827 99.9676 54.1327 99.7996 53.722C99.641 53.302 99.5616 52.8213 99.5616 52.28C99.5616 51.7293 99.6456 51.2393 99.8136 50.81C99.9816 50.3807 100.21 50.0213 100.5 49.732C100.798 49.4333 101.144 49.2093 101.536 49.06C101.928 48.9013 102.352 48.822 102.81 48.822C103.267 48.822 103.687 48.892 104.07 49.032C104.462 49.172 104.798 49.382 105.078 49.662C105.367 49.942 105.591 50.292 105.75 50.712C105.918 51.1227 106.002 51.5987 106.002 52.14ZM104.714 52.21C104.714 51.7713 104.658 51.398 104.546 51.09C104.434 50.782 104.284 50.53 104.098 50.334C103.92 50.138 103.715 49.998 103.482 49.914C103.248 49.8207 103.01 49.774 102.768 49.774C102.525 49.774 102.287 49.8113 102.054 49.886C101.82 49.9607 101.615 50.0913 101.438 50.278C101.26 50.4647 101.116 50.7167 101.004 51.034C100.901 51.342 100.85 51.734 100.85 52.21C100.85 52.6487 100.906 53.0267 101.018 53.344C101.13 53.652 101.274 53.904 101.452 54.1C101.638 54.296 101.848 54.4407 102.082 54.534C102.315 54.6273 102.553 54.674 102.796 54.674C103.038 54.674 103.276 54.6367 103.51 54.562C103.743 54.478 103.948 54.3427 104.126 54.156C104.303 53.96 104.443 53.708 104.546 53.4C104.658 53.0827 104.714 52.686 104.714 52.21ZM111.911 48.92H113.143V55.5H112.177L112.009 54.674H111.953C111.71 54.9447 111.407 55.1733 111.043 55.36C110.688 55.5373 110.273 55.626 109.797 55.626C109.115 55.626 108.56 55.4347 108.131 55.052C107.711 54.66 107.501 54.072 107.501 53.288V48.92H108.733V53.134C108.733 53.414 108.765 53.652 108.831 53.848C108.905 54.044 108.999 54.2027 109.111 54.324C109.232 54.436 109.372 54.52 109.531 54.576C109.689 54.6227 109.862 54.646 110.049 54.646C110.422 54.646 110.758 54.5667 111.057 54.408C111.355 54.2493 111.64 54.03 111.911 53.75V48.92ZM115.02 55.5V48.92H115.944L116.154 50.236C116.312 49.816 116.574 49.4753 116.938 49.214C117.302 48.9527 117.722 48.822 118.198 48.822C118.44 48.822 118.641 48.8407 118.8 48.878C118.958 48.9153 119.103 48.962 119.234 49.018L118.996 50.096C118.884 50.04 118.758 49.9933 118.618 49.956C118.487 49.9187 118.328 49.9 118.142 49.9C117.871 49.9 117.619 49.9467 117.386 50.04C117.162 50.1333 116.961 50.2733 116.784 50.46C116.616 50.6467 116.48 50.88 116.378 51.16C116.284 51.4307 116.238 51.7433 116.238 52.098V55.5H115.02ZM129.296 46.68V47.772H126.538V55.5H125.25V47.772H122.548V46.68H129.296ZM135.547 52.14C135.547 52.6907 135.463 53.1853 135.295 53.624C135.127 54.0533 134.893 54.4173 134.595 54.716C134.305 55.0147 133.965 55.2433 133.573 55.402C133.181 55.5513 132.756 55.626 132.299 55.626C131.841 55.626 131.417 55.556 131.025 55.416C130.642 55.2667 130.306 55.052 130.017 54.772C129.737 54.4827 129.513 54.1327 129.345 53.722C129.186 53.302 129.107 52.8213 129.107 52.28C129.107 51.7293 129.191 51.2393 129.359 50.81C129.527 50.3807 129.755 50.0213 130.045 49.732C130.343 49.4333 130.689 49.2093 131.081 49.06C131.473 48.9013 131.897 48.822 132.355 48.822C132.812 48.822 133.232 48.892 133.615 49.032C134.007 49.172 134.343 49.382 134.623 49.662C134.912 49.942 135.136 50.292 135.295 50.712C135.463 51.1227 135.547 51.5987 135.547 52.14ZM134.259 52.21C134.259 51.7713 134.203 51.398 134.091 51.09C133.979 50.782 133.829 50.53 133.643 50.334C133.465 50.138 133.26 49.998 133.027 49.914C132.793 49.8207 132.555 49.774 132.313 49.774C132.07 49.774 131.832 49.8113 131.599 49.886C131.365 49.9607 131.16 50.0913 130.983 50.278C130.805 50.4647 130.661 50.7167 130.549 51.034C130.446 51.342 130.395 51.734 130.395 52.21C130.395 52.6487 130.451 53.0267 130.563 53.344C130.675 53.652 130.819 53.904 130.997 54.1C131.183 54.296 131.393 54.4407 131.627 54.534C131.86 54.6273 132.098 54.674 132.341 54.674C132.583 54.674 132.821 54.6367 133.055 54.562C133.288 54.478 133.493 54.3427 133.671 54.156C133.848 53.96 133.988 53.708 134.091 53.4C134.203 53.0827 134.259 52.686 134.259 52.21ZM143.08 52.14C143.08 52.6907 142.996 53.1853 142.828 53.624C142.66 54.0533 142.426 54.4173 142.128 54.716C141.838 55.0147 141.498 55.2433 141.106 55.402C140.714 55.5513 140.289 55.626 139.832 55.626C139.374 55.626 138.95 55.556 138.558 55.416C138.175 55.2667 137.839 55.052 137.55 54.772C137.27 54.4827 137.046 54.1327 136.878 53.722C136.719 53.302 136.64 52.8213 136.64 52.28C136.64 51.7293 136.724 51.2393 136.892 50.81C137.06 50.3807 137.288 50.0213 137.578 49.732C137.876 49.4333 138.222 49.2093 138.614 49.06C139.006 48.9013 139.43 48.822 139.888 48.822C140.345 48.822 140.765 48.892 141.148 49.032C141.54 49.172 141.876 49.382 142.156 49.662C142.445 49.942 142.669 50.292 142.828 50.712C142.996 51.1227 143.08 51.5987 143.08 52.14ZM141.792 52.21C141.792 51.7713 141.736 51.398 141.624 51.09C141.512 50.782 141.362 50.53 141.176 50.334C140.998 50.138 140.793 49.998 140.56 49.914C140.326 49.8207 140.088 49.774 139.846 49.774C139.603 49.774 139.365 49.8113 139.132 49.886C138.898 49.9607 138.693 50.0913 138.516 50.278C138.338 50.4647 138.194 50.7167 138.082 51.034C137.979 51.342 137.928 51.734 137.928 52.21C137.928 52.6487 137.984 53.0267 138.096 53.344C138.208 53.652 138.352 53.904 138.53 54.1C138.716 54.296 138.926 54.4407 139.16 54.534C139.393 54.6273 139.631 54.674 139.874 54.674C140.116 54.674 140.354 54.6367 140.588 54.562C140.821 54.478 141.026 54.3427 141.204 54.156C141.381 53.96 141.521 53.708 141.624 53.4C141.736 53.0827 141.792 52.686 141.792 52.21ZM144.635 55.5V45.56H145.839V55.5H144.635Z" fill="white"/>
</g>
<rect x="3.5" y="72.5" width="186" height="29" rx="3.5" stroke="#EBF1F7"/>
<rect x="38.5" y="80" width="116" height="14" rx="7" fill="url(#paint1_linear_164_379)"/>
<rect x="3.5" y="108.5" width="186" height="29" rx="3.5" stroke="#EBF1F7"/>
<rect x="38.5" y="116" width="116" height="14" rx="7" fill="url(#paint2_linear_164_379)"/>
<g clip-path="url(#clip0_164_379)">
<g filter="url(#filter1_d_164_379)">
<path d="M165.087 60.25C164.061 60.25 163.216 61.0969 163.216 62.125V69.5081L162.806 69.0781L162.651 68.9412C162.304 68.5955 161.834 68.4014 161.345 68.4014C160.855 68.4014 160.386 68.5955 160.039 68.9412C159.694 69.289 159.5 69.7596 159.5 70.25C159.5 70.7404 159.694 71.2109 160.039 71.5587V71.5781L165.145 76.6369L165.184 76.6562L165.203 76.6956C166.1 77.3777 167.195 77.7478 168.321 77.75H169.394C170.065 77.7514 170.73 77.62 171.35 77.3633C171.97 77.1066 172.533 76.7297 173.008 76.2542C173.482 75.7787 173.858 75.214 174.114 74.5925C174.37 73.971 174.501 73.3049 174.5 72.6325V67.75C174.5 66.7219 173.654 65.875 172.629 65.875C172.363 65.875 172.118 65.9481 171.888 66.0506C171.684 65.2381 170.946 64.625 170.076 64.625C169.598 64.625 169.16 64.8125 168.828 65.1131C168.488 64.8007 168.043 64.6267 167.581 64.625C167.368 64.6283 167.157 64.668 166.958 64.7425V62.125C166.958 61.0969 166.112 60.25 165.087 60.25ZM165.087 61.5C165.433 61.5 165.71 61.7781 165.71 62.125V69H166.958V66.5C166.958 66.1531 167.235 65.875 167.581 65.875C167.927 65.875 168.205 66.1531 168.205 66.5V69H169.452V66.5C169.452 66.1531 169.73 65.875 170.076 65.875C170.422 65.875 170.699 66.1531 170.699 66.5V69H172.005V67.75C172.005 67.4031 172.283 67.125 172.629 67.125C172.975 67.125 173.253 67.4031 173.253 67.75V72.6331C173.253 74.7981 171.554 76.5 169.394 76.5H168.322C167.408 76.5 166.619 76.1731 165.963 75.6794L160.916 70.6794C160.638 70.4012 160.638 70.0981 160.916 69.82C161.194 69.5419 161.496 69.5419 161.773 69.82L164.463 72.5156V62.125C164.463 61.7781 164.74 61.5 165.087 61.5Z" fill="#2D6A9E"/>
<path d="M165.087 61.5C165.433 61.5 165.71 61.7781 165.71 62.125V69H166.958V66.5C166.958 66.1531 167.235 65.875 167.581 65.875C167.927 65.875 168.205 66.1531 168.205 66.5V69H169.452V66.5C169.452 66.1531 169.73 65.875 170.076 65.875C170.422 65.875 170.699 66.1531 170.699 66.5V69H172.005V67.75C172.005 67.4031 172.283 67.125 172.629 67.125C172.975 67.125 173.253 67.4031 173.253 67.75V72.6331C173.253 74.7981 171.554 76.5 169.394 76.5H168.322C167.408 76.5 166.619 76.1731 165.963 75.6794L160.916 70.6794C160.638 70.4012 160.638 70.0981 160.916 69.82C161.194 69.5419 161.496 69.5419 161.773 69.82L164.463 72.5156V62.125C164.463 61.7781 164.74 61.5 165.087 61.5Z" fill="white"/>
</g>
</g>
<defs>
<filter id="filter0_d_164_379" x="0" y="35" width="193" height="36" filterUnits="userSpaceOnUse" color-interpolation-filters="sRGB">
<feFlood flood-opacity="0" result="BackgroundImageFix"/>
<feColorMatrix in="SourceAlpha" type="matrix" values="0 0 0 0 0 0 0 0 0 0 0 0 0 0 0 0 0 0 127 0" result="hardAlpha"/>
<feOffset dy="2"/>
<feGaussianBlur stdDeviation="1.5"/>
<feComposite in2="hardAlpha" operator="out"/>
<feColorMatrix type="matrix" values="0 0 0 0 0.172549 0 0 0 0 0.243137 0 0 0 0 0.313726 0 0 0 0.3 0"/>
<feBlend mode="normal" in2="BackgroundImageFix" result="effect1_dropShadow_164_379"/>
<feBlend mode="normal" in="SourceGraphic" in2="effect1_dropShadow_164_379" result="shape"/>
</filter>
<filter id="filter1_d_164_379" x="156.5" y="59.25" width="21" height="23.5" filterUnits="userSpaceOnUse" color-interpolation-filters="sRGB">
<feFlood flood-opacity="0" result="BackgroundImageFix"/>
<feColorMatrix in="SourceAlpha" type="matrix" values="0 0 0 0 0 0 0 0 0 0 0 0 0 0 0 0 0 0 127 0" result="hardAlpha"/>
<feOffset dy="2"/>
<feGaussianBlur stdDeviation="1.5"/>
<feComposite in2="hardAlpha" operator="out"/>
<feColorMatrix type="matrix" values="0 0 0 0 0.193238 0 0 0 0 0.285321 0 0 0 0 0.377404 0 0 0 0.1 0"/>
<feBlend mode="normal" in2="BackgroundImageFix" result="effect1_dropShadow_164_379"/>
<feBlend mode="normal" in="SourceGraphic" in2="effect1_dropShadow_164_379" result="shape"/>
</filter>
<linearGradient id="paint0_linear_164_379" x1="39" y1="8" x2="159.5" y2="16.5" gradientUnits="userSpaceOnUse">
<stop stop-color="#EDEDED"/>
<stop offset="0.269231" stop-color="#F7F7F7"/>
<stop offset="0.543269" stop-color="#EDEDED"/>
</linearGradient>
<linearGradient id="paint1_linear_164_379" x1="39" y1="80" x2="159.5" y2="88.5" gradientUnits="userSpaceOnUse">
<stop stop-color="#EDEDED"/>
<stop offset="0.269231" stop-color="#F7F7F7"/>
<stop offset="0.543269" stop-color="#EDEDED"/>
</linearGradient>
<linearGradient id="paint2_linear_164_379" x1="39" y1="116" x2="159.5" y2="124.5" gradientUnits="userSpaceOnUse">
<stop stop-color="#EDEDED"/>
<stop offset="0.269231" stop-color="#F7F7F7"/>
<stop offset="0.543269" stop-color="#EDEDED"/>
</linearGradient>
<clipPath id="clip0_164_379">
<rect width="20" height="20" fill="white" transform="translate(157 59)"/>
</clipPath>
</defs>
</svg>
