<svg width="22" height="18" viewBox="0 0 22 18" fill="none" xmlns="http://www.w3.org/2000/svg">
<path d="M20.1176 0H1.48235C1.08921 0 0.712166 0.151333 0.434171 0.420709C0.156176 0.690084 0 1.05543 0 1.43639V16.2107C0 16.5916 0.156176 16.957 0.434171 17.2263C0.712166 17.4957 1.08921 17.6471 1.48235 17.6471H20.1176C20.5108 17.6471 20.8878 17.4957 21.1658 17.2263C21.4438 16.957 21.6 16.5916 21.6 16.2107V1.43639C21.6 1.05543 21.4438 0.690084 21.1658 0.420709C20.8878 0.151333 20.5108 0 20.1176 0ZM1.27059 16.2107V1.43639C1.27059 1.38197 1.2929 1.32977 1.33261 1.29129C1.37233 1.25281 1.42619 1.23119 1.48235 1.23119H5.92941V16.4159H1.48235C1.42619 16.4159 1.37233 16.3942 1.33261 16.3558C1.2929 16.3173 1.27059 16.2651 1.27059 16.2107ZM20.3294 16.2107C20.3294 16.2651 20.3071 16.3173 20.2674 16.3558C20.2277 16.3942 20.1738 16.4159 20.1176 16.4159H7.2V1.23119H20.1176C20.1738 1.23119 20.2277 1.25281 20.2674 1.29129C20.3071 1.32977 20.3294 1.38197 20.3294 1.43639V16.2107Z" fill="#0A2B42"/>
</svg>
