<svg width="167" height="138" viewBox="0 0 167 138" fill="none" xmlns="http://www.w3.org/2000/svg">
<rect x="5" y="42" width="157" height="52" rx="4" fill="#0A2B42"/>
<path d="M19.97 52.054C20.4833 52.054 20.9453 52.0913 21.356 52.166C21.776 52.2407 22.1633 52.3713 22.518 52.558L22.21 53.566C21.8647 53.4073 21.524 53.2907 21.188 53.216C20.8613 53.1413 20.5067 53.104 20.124 53.104C19.7133 53.104 19.3213 53.1647 18.948 53.286C18.5747 53.4073 18.2433 53.608 17.954 53.888C17.674 54.1587 17.45 54.518 17.282 54.966C17.114 55.4047 17.03 55.9507 17.03 56.604C17.03 57.7333 17.2867 58.592 17.8 59.18C18.3133 59.768 19.0367 60.062 19.97 60.062C20.3247 60.062 20.628 60.0433 20.88 60.006C21.1413 59.9687 21.3933 59.9033 21.636 59.81V57.36H19.97V56.352H22.84V60.608C22.4667 60.7573 22.0513 60.8833 21.594 60.986C21.1367 61.0793 20.5953 61.126 19.97 61.126C19.3633 61.126 18.794 61.028 18.262 60.832C17.7393 60.636 17.282 60.3467 16.89 59.964C16.498 59.5813 16.19 59.11 15.966 58.55C15.742 57.99 15.63 57.3413 15.63 56.604C15.63 55.8667 15.7373 55.2133 15.952 54.644C16.176 54.0747 16.4793 53.5987 16.862 53.216C17.2447 52.8333 17.702 52.544 18.234 52.348C18.766 52.152 19.3447 52.054 19.97 52.054ZM30.2063 57.85H25.4883V57.906C25.4883 58.634 25.6843 59.194 26.0763 59.586C26.4776 59.978 27.019 60.174 27.7003 60.174C28.055 60.174 28.3676 60.146 28.6383 60.09C28.9183 60.034 29.2216 59.9407 29.5483 59.81L29.8003 60.72C29.5296 60.8413 29.2076 60.9393 28.8343 61.014C28.4703 61.0887 28.0783 61.126 27.6583 61.126C27.1823 61.126 26.7343 61.0607 26.3143 60.93C25.9036 60.7993 25.5396 60.5987 25.2223 60.328C24.905 60.048 24.653 59.6933 24.4663 59.264C24.289 58.8347 24.2003 58.3213 24.2003 57.724C24.2003 57.2107 24.275 56.744 24.4243 56.324C24.583 55.904 24.8023 55.5493 25.0823 55.26C25.3623 54.9613 25.6983 54.7327 26.0903 54.574C26.4916 54.406 26.9396 54.322 27.4343 54.322C27.8543 54.322 28.2323 54.392 28.5683 54.532C28.9136 54.672 29.2076 54.868 29.4503 55.12C29.693 55.372 29.8796 55.6753 30.0103 56.03C30.141 56.3847 30.2063 56.7767 30.2063 57.206V57.85ZM28.9323 56.968C28.9323 56.7253 28.8996 56.5013 28.8343 56.296C28.7783 56.0813 28.685 55.8947 28.5543 55.736C28.433 55.5773 28.2743 55.4513 28.0783 55.358C27.8823 55.2647 27.6443 55.218 27.3643 55.218C26.851 55.218 26.431 55.3813 26.1043 55.708C25.787 56.0347 25.591 56.464 25.5163 56.996L28.9323 56.968ZM35.119 55.344H33.187V59.166C33.187 59.4927 33.2663 59.712 33.425 59.824C33.593 59.936 33.8077 59.992 34.069 59.992C34.2557 59.992 34.461 59.9733 34.685 59.936C34.909 59.8893 35.105 59.838 35.273 59.782L35.469 60.72C35.2823 60.7947 35.0443 60.86 34.755 60.916C34.4657 60.972 34.1623 61 33.845 61C33.1917 61 32.7157 60.86 32.417 60.58C32.1183 60.2907 31.969 59.8753 31.969 59.334V55.344H30.989V54.42H31.969V52.32H33.187V54.42H35.119V55.344ZM39.9341 55.008C40.1581 54.896 40.3681 54.798 40.5641 54.714C40.7601 54.6207 40.9561 54.546 41.1521 54.49C41.3481 54.434 41.5488 54.392 41.7541 54.364C41.9594 54.336 42.1834 54.322 42.4261 54.322C42.7901 54.322 43.1214 54.364 43.4201 54.448C43.7281 54.5227 43.9894 54.6533 44.2041 54.84C44.4281 55.0267 44.6008 55.274 44.7221 55.582C44.8434 55.8807 44.9041 56.2587 44.9041 56.716V61H43.8821L43.7281 60.272H43.7001C43.4108 60.58 43.0934 60.7993 42.7481 60.93C42.4028 61.0607 42.0201 61.126 41.6001 61.126C41.2828 61.126 40.9888 61.084 40.7181 61C40.4568 60.9067 40.2281 60.7807 40.0321 60.622C39.8361 60.454 39.6821 60.2533 39.5701 60.02C39.4674 59.7867 39.4161 59.5253 39.4161 59.236C39.4161 58.5453 39.6868 58.0227 40.2281 57.668C40.7788 57.304 41.5021 57.122 42.3981 57.122H43.6581V56.562C43.6581 56.086 43.5368 55.764 43.2941 55.596C43.0514 55.4187 42.7248 55.33 42.3141 55.33C42.0714 55.33 41.7914 55.372 41.4741 55.456C41.1661 55.5307 40.8114 55.68 40.4101 55.904L39.9341 55.008ZM43.6721 57.962L42.6361 57.99C41.9361 58.0087 41.4368 58.1347 41.1381 58.368C40.8488 58.592 40.7041 58.8673 40.7041 59.194C40.7041 59.39 40.7368 59.558 40.8021 59.698C40.8674 59.8287 40.9514 59.9313 41.0541 60.006C41.1661 60.0807 41.2921 60.1367 41.4321 60.174C41.5814 60.202 41.7354 60.216 41.8941 60.216C42.2021 60.216 42.5148 60.146 42.8321 60.006C43.1494 59.8567 43.4294 59.6233 43.6721 59.306V57.962ZM52.4632 52.054C52.8926 52.054 53.3079 52.0913 53.7092 52.166C54.1106 52.2313 54.5072 52.3573 54.8992 52.544L54.5912 53.608C54.1899 53.4213 53.8259 53.2907 53.4992 53.216C53.1819 53.132 52.8552 53.09 52.5192 53.09C51.9872 53.09 51.5672 53.2067 51.2592 53.44C50.9512 53.6733 50.7972 54 50.7972 54.42C50.7972 54.7747 50.9092 55.0593 51.1332 55.274C51.3666 55.4887 51.7446 55.6753 52.2672 55.834L53.1492 56.114C53.9519 56.366 54.5166 56.7113 54.8432 57.15C55.1792 57.5793 55.3472 58.0647 55.3472 58.606C55.3472 58.9887 55.2679 59.3387 55.1092 59.656C54.9599 59.964 54.7452 60.23 54.4652 60.454C54.1946 60.6687 53.8726 60.8367 53.4992 60.958C53.1259 61.07 52.7152 61.126 52.2672 61.126C51.8192 61.126 51.3619 61.084 50.8952 61C50.4379 60.9253 49.9806 60.7807 49.5232 60.566L49.8312 59.516C50.2326 59.712 50.6246 59.8567 51.0072 59.95C51.3899 60.0433 51.7912 60.09 52.2112 60.09C52.7152 60.09 53.1446 59.9733 53.4992 59.74C53.8539 59.5067 54.0312 59.1613 54.0312 58.704C54.0312 58.536 54.0032 58.382 53.9472 58.242C53.9006 58.0927 53.8119 57.9527 53.6812 57.822C53.5599 57.6913 53.3919 57.57 53.1772 57.458C52.9626 57.346 52.6919 57.2387 52.3652 57.136L51.4832 56.856C50.8392 56.6507 50.3446 56.3707 49.9992 56.016C49.6539 55.6613 49.4812 55.1807 49.4812 54.574C49.4812 53.7993 49.7332 53.188 50.2372 52.74C50.7506 52.2827 51.4926 52.054 52.4632 52.054ZM57.0816 61V54.42H58.3136V61H57.0816ZM57.6976 52.726C57.4829 52.726 57.2963 52.656 57.1376 52.516C56.9883 52.3667 56.9136 52.1847 56.9136 51.97C56.9136 51.7553 56.9883 51.5733 57.1376 51.424C57.2963 51.2747 57.4829 51.2 57.6976 51.2C57.9029 51.2 58.0849 51.2747 58.2436 51.424C58.4023 51.5733 58.4816 51.7553 58.4816 51.97C58.4816 52.1847 58.4023 52.3667 58.2436 52.516C58.0849 52.656 57.9029 52.726 57.6976 52.726ZM61.5629 61H60.3309V54.42H61.2829L61.4649 55.33C61.7729 55.022 62.1042 54.7793 62.4589 54.602C62.8136 54.4153 63.2382 54.322 63.7329 54.322C64.1996 54.322 64.5822 54.42 64.8809 54.616C65.1796 54.8027 65.4036 55.064 65.5529 55.4C65.8796 55.0547 66.2389 54.7887 66.6309 54.602C67.0229 54.4153 67.4569 54.322 67.9329 54.322C68.6049 54.322 69.1089 54.5133 69.4449 54.896C69.7902 55.2693 69.9629 55.792 69.9629 56.464V61H68.7309V56.688C68.7309 56.2493 68.6376 55.9133 68.4509 55.68C68.2642 55.4467 67.9562 55.33 67.5269 55.33C66.8922 55.33 66.2996 55.6147 65.7489 56.184C65.7582 56.2307 65.7629 56.2773 65.7629 56.324C65.7629 56.3707 65.7629 56.4173 65.7629 56.464V61H64.5309V56.688C64.5309 56.2493 64.4376 55.9133 64.2509 55.68C64.0642 55.4467 63.7562 55.33 63.3269 55.33C62.6922 55.33 62.1042 55.6287 61.5629 56.226V61ZM74.6 61.126C74.3013 61.126 74.012 61.084 73.732 61C73.4613 60.916 73.228 60.804 73.032 60.664V64.22H71.814V54.322H72.836L73.018 55.176C73.27 54.9427 73.5546 54.742 73.872 54.574C74.1893 54.406 74.5626 54.322 74.992 54.322C75.8693 54.322 76.56 54.602 77.064 55.162C77.568 55.722 77.82 56.5247 77.82 57.57C77.82 58.186 77.7266 58.718 77.54 59.166C77.3626 59.614 77.12 59.9827 76.812 60.272C76.5133 60.5613 76.168 60.776 75.776 60.916C75.3933 61.056 75.0013 61.126 74.6 61.126ZM74.726 55.33C74.334 55.33 73.9933 55.428 73.704 55.624C73.4146 55.8107 73.1906 56.002 73.032 56.198V59.712C73.2466 59.8707 73.4753 59.9873 73.718 60.062C73.9606 60.1367 74.2033 60.174 74.446 60.174C74.698 60.174 74.95 60.132 75.202 60.048C75.454 59.9547 75.678 59.8053 75.874 59.6C76.07 59.3947 76.2286 59.1287 76.35 58.802C76.4713 58.4753 76.532 58.074 76.532 57.598C76.532 56.898 76.3826 56.3473 76.084 55.946C75.7946 55.5353 75.342 55.33 74.726 55.33ZM79.3635 61V51.06H80.5675V61H79.3635ZM88.134 57.85H83.416V57.906C83.416 58.634 83.612 59.194 84.004 59.586C84.4054 59.978 84.9467 60.174 85.628 60.174C85.9827 60.174 86.2954 60.146 86.566 60.09C86.846 60.034 87.1494 59.9407 87.476 59.81L87.728 60.72C87.4574 60.8413 87.1354 60.9393 86.762 61.014C86.398 61.0887 86.006 61.126 85.586 61.126C85.11 61.126 84.662 61.0607 84.242 60.93C83.8314 60.7993 83.4674 60.5987 83.15 60.328C82.8327 60.048 82.5807 59.6933 82.394 59.264C82.2167 58.8347 82.128 58.3213 82.128 57.724C82.128 57.2107 82.2027 56.744 82.352 56.324C82.5107 55.904 82.73 55.5493 83.01 55.26C83.29 54.9613 83.626 54.7327 84.018 54.574C84.4194 54.406 84.8674 54.322 85.362 54.322C85.782 54.322 86.16 54.392 86.496 54.532C86.8414 54.672 87.1354 54.868 87.378 55.12C87.6207 55.372 87.8074 55.6753 87.938 56.03C88.0687 56.3847 88.134 56.7767 88.134 57.206V57.85ZM86.86 56.968C86.86 56.7253 86.8274 56.5013 86.762 56.296C86.706 56.0813 86.6127 55.8947 86.482 55.736C86.3607 55.5773 86.202 55.4513 86.006 55.358C85.81 55.2647 85.572 55.218 85.292 55.218C84.7787 55.218 84.3587 55.3813 84.032 55.708C83.7147 56.0347 83.5187 56.464 83.444 56.996L86.86 56.968ZM95.3242 52.18H96.4722L99.9862 61H98.6422L97.6762 58.55H94.0502L93.0982 61H91.7682L95.3242 52.18ZM94.4002 57.528H97.2982L96.7102 56.002C96.5516 55.6007 96.4069 55.2133 96.2762 54.84C96.1456 54.4667 96.0149 54.084 95.8842 53.692H95.8562C95.7256 54.084 95.5902 54.462 95.4502 54.826C95.3102 55.19 95.1609 55.582 95.0022 56.002L94.4002 57.528ZM102.182 61H100.95V54.42H101.916L102.098 55.33C102.425 55.0033 102.765 54.756 103.12 54.588C103.484 54.4107 103.899 54.322 104.366 54.322C105.038 54.322 105.565 54.5133 105.948 54.896C106.331 55.2693 106.522 55.792 106.522 56.464V61H105.29V56.646C105.29 56.2447 105.183 55.9273 104.968 55.694C104.763 55.4513 104.445 55.33 104.016 55.33C103.363 55.33 102.751 55.624 102.182 56.212V61ZM112.125 55.652C111.817 55.5027 111.537 55.4 111.285 55.344C111.033 55.288 110.781 55.26 110.529 55.26C110.081 55.26 109.749 55.344 109.535 55.512C109.32 55.6707 109.213 55.8853 109.213 56.156C109.213 56.352 109.287 56.5247 109.437 56.674C109.586 56.814 109.899 56.954 110.375 57.094L110.795 57.22C111.42 57.4067 111.891 57.6493 112.209 57.948C112.535 58.2373 112.699 58.634 112.699 59.138C112.699 59.7353 112.475 60.216 112.027 60.58C111.588 60.944 110.972 61.126 110.179 61.126C109.759 61.126 109.353 61.0887 108.961 61.014C108.578 60.9393 108.247 60.8367 107.967 60.706L108.261 59.74C108.531 59.8707 108.825 59.978 109.143 60.062C109.46 60.1367 109.782 60.174 110.109 60.174C110.529 60.174 110.86 60.0993 111.103 59.95C111.355 59.8007 111.481 59.5533 111.481 59.208C111.481 58.9093 111.373 58.6993 111.159 58.578C110.944 58.4473 110.636 58.3213 110.235 58.2L109.801 58.06C109.194 57.864 108.741 57.6213 108.443 57.332C108.153 57.0333 108.009 56.6507 108.009 56.184C108.009 55.904 108.069 55.6473 108.191 55.414C108.312 55.1807 108.475 54.9847 108.681 54.826C108.895 54.6673 109.147 54.546 109.437 54.462C109.726 54.3687 110.043 54.322 110.389 54.322C110.715 54.322 111.051 54.3547 111.397 54.42C111.751 54.476 112.087 54.574 112.405 54.714L112.125 55.652ZM113.332 54.42H114.648L115.768 58.564L116.02 60.034H116.076L116.384 58.564L117.518 54.42H118.848L120.01 58.564L120.304 60.034H120.36L120.668 58.564L121.76 54.42H123.02L121.018 61H119.618L118.498 56.968L118.176 55.344L117.84 56.968L116.692 61H115.362L113.332 54.42ZM129.628 57.85H124.91V57.906C124.91 58.634 125.106 59.194 125.498 59.586C125.9 59.978 126.441 60.174 127.122 60.174C127.477 60.174 127.79 60.146 128.06 60.09C128.34 60.034 128.644 59.9407 128.97 59.81L129.222 60.72C128.952 60.8413 128.63 60.9393 128.256 61.014C127.892 61.0887 127.5 61.126 127.08 61.126C126.604 61.126 126.156 61.0607 125.736 60.93C125.326 60.7993 124.962 60.5987 124.644 60.328C124.327 60.048 124.075 59.6933 123.888 59.264C123.711 58.8347 123.622 58.3213 123.622 57.724C123.622 57.2107 123.697 56.744 123.846 56.324C124.005 55.904 124.224 55.5493 124.504 55.26C124.784 54.9613 125.12 54.7327 125.512 54.574C125.914 54.406 126.362 54.322 126.856 54.322C127.276 54.322 127.654 54.392 127.99 54.532C128.336 54.672 128.63 54.868 128.872 55.12C129.115 55.372 129.302 55.6753 129.432 56.03C129.563 56.3847 129.628 56.7767 129.628 57.206V57.85ZM128.354 56.968C128.354 56.7253 128.322 56.5013 128.256 56.296C128.2 56.0813 128.107 55.8947 127.976 55.736C127.855 55.5773 127.696 55.4513 127.5 55.358C127.304 55.2647 127.066 55.218 126.786 55.218C126.273 55.218 125.853 55.3813 125.526 55.708C125.209 56.0347 125.013 56.464 124.938 56.996L128.354 56.968ZM131.055 61V54.42H131.979L132.189 55.736C132.348 55.316 132.609 54.9753 132.973 54.714C133.337 54.4527 133.757 54.322 134.233 54.322C134.476 54.322 134.676 54.3407 134.835 54.378C134.994 54.4153 135.138 54.462 135.269 54.518L135.031 55.596C134.919 55.54 134.793 55.4933 134.653 55.456C134.522 55.4187 134.364 55.4 134.177 55.4C133.906 55.4 133.654 55.4467 133.421 55.54C133.197 55.6333 132.996 55.7733 132.819 55.96C132.651 56.1467 132.516 56.38 132.413 56.66C132.32 56.9307 132.273 57.2433 132.273 57.598V61H131.055ZM16.148 84V77.42H17.38V84H16.148ZM16.764 75.726C16.5493 75.726 16.3627 75.656 16.204 75.516C16.0547 75.3667 15.98 75.1847 15.98 74.97C15.98 74.7553 16.0547 74.5733 16.204 74.424C16.3627 74.2747 16.5493 74.2 16.764 74.2C16.9693 74.2 17.1513 74.2747 17.31 74.424C17.4687 74.5733 17.548 74.7553 17.548 74.97C17.548 75.1847 17.4687 75.3667 17.31 75.516C17.1513 75.656 16.9693 75.726 16.764 75.726ZM20.6293 84H19.3973V77.42H20.3633L20.5453 78.33C20.872 78.0033 21.2126 77.756 21.5673 77.588C21.9313 77.4107 22.3466 77.322 22.8133 77.322C23.4853 77.322 24.0126 77.5133 24.3953 77.896C24.778 78.2693 24.9693 78.792 24.9693 79.464V84H23.7373V79.646C23.7373 79.2447 23.63 78.9273 23.4153 78.694C23.21 78.4513 22.8926 78.33 22.4633 78.33C21.81 78.33 21.1986 78.624 20.6293 79.212V84ZM29.1533 77.42H30.4693L31.8693 81.186L32.3453 82.754H32.3733L32.8493 81.186L34.1233 77.42H35.3833L32.8493 84.56C32.5693 85.3533 32.2147 85.974 31.7853 86.422C31.3653 86.87 30.8613 87.1967 30.2733 87.402L29.7413 86.422C30.18 86.254 30.5673 86.0113 30.9033 85.694C31.2487 85.3767 31.5147 84.938 31.7013 84.378L31.8273 84L29.1533 77.42ZM42.4665 80.64C42.4665 81.1907 42.3825 81.6853 42.2145 82.124C42.0465 82.5533 41.8131 82.9173 41.5145 83.216C41.2251 83.5147 40.8845 83.7433 40.4925 83.902C40.1005 84.0513 39.6758 84.126 39.2185 84.126C38.7611 84.126 38.3365 84.056 37.9445 83.916C37.5618 83.7667 37.2258 83.552 36.9365 83.272C36.6565 82.9827 36.4325 82.6327 36.2645 82.222C36.1058 81.802 36.0265 81.3213 36.0265 80.78C36.0265 80.2293 36.1105 79.7393 36.2785 79.31C36.4465 78.8807 36.6751 78.5213 36.9645 78.232C37.2631 77.9333 37.6085 77.7093 38.0005 77.56C38.3925 77.4013 38.8171 77.322 39.2745 77.322C39.7318 77.322 40.1518 77.392 40.5345 77.532C40.9265 77.672 41.2625 77.882 41.5425 78.162C41.8318 78.442 42.0558 78.792 42.2145 79.212C42.3825 79.6227 42.4665 80.0987 42.4665 80.64ZM41.1785 80.71C41.1785 80.2713 41.1225 79.898 41.0105 79.59C40.8985 79.282 40.7491 79.03 40.5625 78.834C40.3851 78.638 40.1798 78.498 39.9465 78.414C39.7131 78.3207 39.4751 78.274 39.2325 78.274C38.9898 78.274 38.7518 78.3113 38.5185 78.386C38.2851 78.4607 38.0798 78.5913 37.9025 78.778C37.7251 78.9647 37.5805 79.2167 37.4685 79.534C37.3658 79.842 37.3145 80.234 37.3145 80.71C37.3145 81.1487 37.3705 81.5267 37.4825 81.844C37.5945 82.152 37.7391 82.404 37.9165 82.6C38.1031 82.796 38.3131 82.9407 38.5465 83.034C38.7798 83.1273 39.0178 83.174 39.2605 83.174C39.5031 83.174 39.7411 83.1367 39.9745 83.062C40.2078 82.978 40.4131 82.8427 40.5905 82.656C40.7678 82.46 40.9078 82.208 41.0105 81.9C41.1225 81.5827 41.1785 81.186 41.1785 80.71ZM48.3757 77.42H49.6077V84H48.6417L48.4737 83.174H48.4177C48.175 83.4447 47.8717 83.6733 47.5077 83.86C47.153 84.0373 46.7377 84.126 46.2617 84.126C45.5803 84.126 45.025 83.9347 44.5957 83.552C44.1757 83.16 43.9657 82.572 43.9657 81.788V77.42H45.1977V81.634C45.1977 81.914 45.2303 82.152 45.2957 82.348C45.3703 82.544 45.4637 82.7027 45.5757 82.824C45.697 82.936 45.837 83.02 45.9957 83.076C46.1543 83.1227 46.327 83.146 46.5137 83.146C46.887 83.146 47.223 83.0667 47.5217 82.908C47.8203 82.7493 48.105 82.53 48.3757 82.25V77.42ZM51.4845 84V77.42H52.4085L52.6185 78.736C52.7772 78.316 53.0385 77.9753 53.4025 77.714C53.7665 77.4527 54.1865 77.322 54.6625 77.322C54.9052 77.322 55.1059 77.3407 55.2645 77.378C55.4232 77.4153 55.5679 77.462 55.6985 77.518L55.4605 78.596C55.3485 78.54 55.2225 78.4933 55.0825 78.456C54.9519 78.4187 54.7932 78.4 54.6065 78.4C54.3359 78.4 54.0839 78.4467 53.8505 78.54C53.6265 78.6333 53.4259 78.7733 53.2485 78.96C53.0805 79.1467 52.9452 79.38 52.8425 79.66C52.7492 79.9307 52.7025 80.2433 52.7025 80.598V84H51.4845ZM59.881 84V74.06H61.085V84H59.881ZM63.1216 78.008C63.3456 77.896 63.5556 77.798 63.7516 77.714C63.9476 77.6207 64.1436 77.546 64.3396 77.49C64.5356 77.434 64.7363 77.392 64.9416 77.364C65.1469 77.336 65.3709 77.322 65.6136 77.322C65.9776 77.322 66.3089 77.364 66.6076 77.448C66.9156 77.5227 67.1769 77.6533 67.3916 77.84C67.6156 78.0267 67.7883 78.274 67.9096 78.582C68.0309 78.8807 68.0916 79.2587 68.0916 79.716V84H67.0696L66.9156 83.272H66.8876C66.5983 83.58 66.2809 83.7993 65.9356 83.93C65.5903 84.0607 65.2076 84.126 64.7876 84.126C64.4703 84.126 64.1763 84.084 63.9056 84C63.6443 83.9067 63.4156 83.7807 63.2196 83.622C63.0236 83.454 62.8696 83.2533 62.7576 83.02C62.6549 82.7867 62.6036 82.5253 62.6036 82.236C62.6036 81.5453 62.8743 81.0227 63.4156 80.668C63.9663 80.304 64.6896 80.122 65.5856 80.122H66.8456V79.562C66.8456 79.086 66.7243 78.764 66.4816 78.596C66.2389 78.4187 65.9123 78.33 65.5016 78.33C65.2589 78.33 64.9789 78.372 64.6616 78.456C64.3536 78.5307 63.9989 78.68 63.5976 78.904L63.1216 78.008ZM66.8596 80.962L65.8236 80.99C65.1236 81.0087 64.6243 81.1347 64.3256 81.368C64.0363 81.592 63.8916 81.8673 63.8916 82.194C63.8916 82.39 63.9243 82.558 63.9896 82.698C64.0549 82.8287 64.1389 82.9313 64.2416 83.006C64.3536 83.0807 64.4796 83.1367 64.6196 83.174C64.7689 83.202 64.9229 83.216 65.0816 83.216C65.3896 83.216 65.7023 83.146 66.0196 83.006C66.3369 82.8567 66.6169 82.6233 66.8596 82.306V80.962ZM71.1332 84H69.9012V77.42H70.8672L71.0492 78.33C71.3759 78.0033 71.7166 77.756 72.0712 77.588C72.4352 77.4107 72.8506 77.322 73.3172 77.322C73.9892 77.322 74.5166 77.5133 74.8992 77.896C75.2819 78.2693 75.4732 78.792 75.4732 79.464V84H74.2412V79.646C74.2412 79.2447 74.1339 78.9273 73.9192 78.694C73.7139 78.4513 73.3966 78.33 72.9672 78.33C72.3139 78.33 71.7026 78.624 71.1332 79.212V84ZM77.2134 79.604C77.2134 79.24 77.2787 78.918 77.4094 78.638C77.54 78.3487 77.722 78.106 77.9554 77.91C78.198 77.714 78.4827 77.5693 78.8094 77.476C79.136 77.3733 79.4907 77.322 79.8734 77.322C80.0134 77.322 80.1487 77.3313 80.2794 77.35C80.41 77.3687 80.5407 77.392 80.6714 77.42H83.5134V78.33H83.0794L81.9594 78.176C82.1367 78.3627 82.272 78.5773 82.3654 78.82C82.468 79.0627 82.5194 79.3193 82.5194 79.59C82.5194 79.954 82.454 80.2807 82.3234 80.57C82.1927 80.85 82.0107 81.088 81.7774 81.284C81.544 81.48 81.264 81.6293 80.9374 81.732C80.6107 81.8253 80.256 81.872 79.8734 81.872C79.584 81.872 79.332 81.8533 79.1174 81.816C78.9027 81.8907 78.7534 81.9887 78.6694 82.11C78.5854 82.222 78.5434 82.3433 78.5434 82.474C78.5434 82.6887 78.6134 82.8333 78.7534 82.908C78.9027 82.9827 79.0987 83.02 79.3414 83.02H81.0774C81.8054 83.02 82.3607 83.188 82.7434 83.524C83.1354 83.8507 83.3314 84.2987 83.3314 84.868C83.3314 85.232 83.252 85.5587 83.0934 85.848C82.9347 86.1373 82.706 86.3847 82.4074 86.59C82.118 86.7953 81.7634 86.9493 81.3434 87.052C80.9234 87.164 80.452 87.22 79.9294 87.22C78.9774 87.22 78.2167 87.0473 77.6474 86.702C77.0874 86.366 76.8074 85.8667 76.8074 85.204C76.8074 84.8587 76.9147 84.5693 77.1294 84.336C77.3534 84.1027 77.6427 83.9253 77.9974 83.804C77.8107 83.6733 77.6707 83.538 77.5774 83.398C77.484 83.2487 77.4374 83.0527 77.4374 82.81C77.4374 82.5207 77.5214 82.2733 77.6894 82.068C77.8667 81.8627 78.1047 81.6993 78.4034 81.578C78.03 81.41 77.736 81.1673 77.5214 80.85C77.316 80.5233 77.2134 80.108 77.2134 79.604ZM78.7114 84C78.2354 84.2147 77.9974 84.5507 77.9974 85.008C77.9974 85.8293 78.66 86.24 79.9854 86.24C80.3774 86.24 80.7087 86.2027 80.9794 86.128C81.25 86.0533 81.4694 85.9553 81.6374 85.834C81.8054 85.7127 81.9267 85.5773 82.0014 85.428C82.0854 85.2787 82.1274 85.1247 82.1274 84.966C82.1274 84.574 81.992 84.3127 81.7214 84.182C81.46 84.0607 81.1287 84 80.7274 84H78.7114ZM81.2734 79.632C81.2734 79.1373 81.1427 78.7733 80.8814 78.54C80.6294 78.3067 80.2934 78.19 79.8734 78.19C79.4534 78.19 79.1127 78.3067 78.8514 78.54C78.5994 78.7733 78.4734 79.1187 78.4734 79.576C78.4734 80.0613 78.5994 80.4207 78.8514 80.654C79.1127 80.878 79.4534 80.99 79.8734 80.99C80.2934 80.99 80.6294 80.878 80.8814 80.654C81.1427 80.43 81.2734 80.0893 81.2734 79.632ZM89.2956 77.42H90.5276V84H89.5616L89.3936 83.174H89.3376C89.0949 83.4447 88.7916 83.6733 88.4276 83.86C88.0729 84.0373 87.6576 84.126 87.1816 84.126C86.5003 84.126 85.9449 83.9347 85.5156 83.552C85.0956 83.16 84.8856 82.572 84.8856 81.788V77.42H86.1176V81.634C86.1176 81.914 86.1503 82.152 86.2156 82.348C86.2903 82.544 86.3836 82.7027 86.4956 82.824C86.6169 82.936 86.7569 83.02 86.9156 83.076C87.0743 83.1227 87.2469 83.146 87.4336 83.146C87.8069 83.146 88.1429 83.0667 88.4416 82.908C88.7403 82.7493 89.0249 82.53 89.2956 82.25V77.42ZM92.5025 78.008C92.7265 77.896 92.9365 77.798 93.1325 77.714C93.3285 77.6207 93.5245 77.546 93.7205 77.49C93.9165 77.434 94.1171 77.392 94.3225 77.364C94.5278 77.336 94.7518 77.322 94.9945 77.322C95.3585 77.322 95.6898 77.364 95.9885 77.448C96.2965 77.5227 96.5578 77.6533 96.7725 77.84C96.9965 78.0267 97.1691 78.274 97.2905 78.582C97.4118 78.8807 97.4725 79.2587 97.4725 79.716V84H96.4505L96.2965 83.272H96.2685C95.9791 83.58 95.6618 83.7993 95.3165 83.93C94.9711 84.0607 94.5885 84.126 94.1685 84.126C93.8511 84.126 93.5571 84.084 93.2865 84C93.0251 83.9067 92.7965 83.7807 92.6005 83.622C92.4045 83.454 92.2505 83.2533 92.1385 83.02C92.0358 82.7867 91.9845 82.5253 91.9845 82.236C91.9845 81.5453 92.2551 81.0227 92.7965 80.668C93.3471 80.304 94.0705 80.122 94.9665 80.122H96.2265V79.562C96.2265 79.086 96.1051 78.764 95.8625 78.596C95.6198 78.4187 95.2931 78.33 94.8825 78.33C94.6398 78.33 94.3598 78.372 94.0425 78.456C93.7345 78.5307 93.3798 78.68 92.9785 78.904L92.5025 78.008ZM96.2405 80.962L95.2045 80.99C94.5045 81.0087 94.0051 81.1347 93.7065 81.368C93.4171 81.592 93.2725 81.8673 93.2725 82.194C93.2725 82.39 93.3051 82.558 93.3705 82.698C93.4358 82.8287 93.5198 82.9313 93.6225 83.006C93.7345 83.0807 93.8605 83.1367 94.0005 83.174C94.1498 83.202 94.3038 83.216 94.4625 83.216C94.7705 83.216 95.0831 83.146 95.4005 83.006C95.7178 82.8567 95.9978 82.6233 96.2405 82.306V80.962ZM99.1841 79.604C99.1841 79.24 99.2494 78.918 99.3801 78.638C99.5107 78.3487 99.6927 78.106 99.9261 77.91C100.169 77.714 100.453 77.5693 100.78 77.476C101.107 77.3733 101.461 77.322 101.844 77.322C101.984 77.322 102.119 77.3313 102.25 77.35C102.381 77.3687 102.511 77.392 102.642 77.42H105.484V78.33H105.05L103.93 78.176C104.107 78.3627 104.243 78.5773 104.336 78.82C104.439 79.0627 104.49 79.3193 104.49 79.59C104.49 79.954 104.425 80.2807 104.294 80.57C104.163 80.85 103.981 81.088 103.748 81.284C103.515 81.48 103.235 81.6293 102.908 81.732C102.581 81.8253 102.227 81.872 101.844 81.872C101.555 81.872 101.303 81.8533 101.088 81.816C100.873 81.8907 100.724 81.9887 100.64 82.11C100.556 82.222 100.514 82.3433 100.514 82.474C100.514 82.6887 100.584 82.8333 100.724 82.908C100.873 82.9827 101.069 83.02 101.312 83.02H103.048C103.776 83.02 104.331 83.188 104.714 83.524C105.106 83.8507 105.302 84.2987 105.302 84.868C105.302 85.232 105.223 85.5587 105.064 85.848C104.905 86.1373 104.677 86.3847 104.378 86.59C104.089 86.7953 103.734 86.9493 103.314 87.052C102.894 87.164 102.423 87.22 101.9 87.22C100.948 87.22 100.187 87.0473 99.6181 86.702C99.0581 86.366 98.7781 85.8667 98.7781 85.204C98.7781 84.8587 98.8854 84.5693 99.1001 84.336C99.3241 84.1027 99.6134 83.9253 99.9681 83.804C99.7814 83.6733 99.6414 83.538 99.5481 83.398C99.4547 83.2487 99.4081 83.0527 99.4081 82.81C99.4081 82.5207 99.4921 82.2733 99.6601 82.068C99.8374 81.8627 100.075 81.6993 100.374 81.578C100.001 81.41 99.7067 81.1673 99.4921 80.85C99.2867 80.5233 99.1841 80.108 99.1841 79.604ZM100.682 84C100.206 84.2147 99.9681 84.5507 99.9681 85.008C99.9681 85.8293 100.631 86.24 101.956 86.24C102.348 86.24 102.679 86.2027 102.95 86.128C103.221 86.0533 103.44 85.9553 103.608 85.834C103.776 85.7127 103.897 85.5773 103.972 85.428C104.056 85.2787 104.098 85.1247 104.098 84.966C104.098 84.574 103.963 84.3127 103.692 84.182C103.431 84.0607 103.099 84 102.698 84H100.682ZM103.244 79.632C103.244 79.1373 103.113 78.7733 102.852 78.54C102.6 78.3067 102.264 78.19 101.844 78.19C101.424 78.19 101.083 78.3067 100.822 78.54C100.57 78.7733 100.444 79.1187 100.444 79.576C100.444 80.0613 100.57 80.4207 100.822 80.654C101.083 80.878 101.424 80.99 101.844 80.99C102.264 80.99 102.6 80.878 102.852 80.654C103.113 80.43 103.244 80.0893 103.244 79.632ZM112.183 80.85H107.465V80.906C107.465 81.634 107.661 82.194 108.053 82.586C108.454 82.978 108.996 83.174 109.677 83.174C110.032 83.174 110.344 83.146 110.615 83.09C110.895 83.034 111.198 82.9407 111.525 82.81L111.777 83.72C111.506 83.8413 111.184 83.9393 110.811 84.014C110.447 84.0887 110.055 84.126 109.635 84.126C109.159 84.126 108.711 84.0607 108.291 83.93C107.88 83.7993 107.516 83.5987 107.199 83.328C106.882 83.048 106.63 82.6933 106.443 82.264C106.266 81.8347 106.177 81.3213 106.177 80.724C106.177 80.2107 106.252 79.744 106.401 79.324C106.56 78.904 106.779 78.5493 107.059 78.26C107.339 77.9613 107.675 77.7327 108.067 77.574C108.468 77.406 108.916 77.322 109.411 77.322C109.831 77.322 110.209 77.392 110.545 77.532C110.89 77.672 111.184 77.868 111.427 78.12C111.67 78.372 111.856 78.6753 111.987 79.03C112.118 79.3847 112.183 79.7767 112.183 80.206V80.85ZM110.909 79.968C110.909 79.7253 110.876 79.5013 110.811 79.296C110.755 79.0813 110.662 78.8947 110.531 78.736C110.41 78.5773 110.251 78.4513 110.055 78.358C109.859 78.2647 109.621 78.218 109.341 78.218C108.828 78.218 108.408 78.3813 108.081 78.708C107.764 79.0347 107.568 79.464 107.493 79.996L110.909 79.968Z" fill="white"/>
<rect x="19" y="108" width="143" height="14" rx="7" fill="url(#paint0_linear_164_396)"/>
<rect x="91" y="14" width="62" height="14" rx="7" fill="url(#paint1_linear_164_396)"/>
<defs>
<linearGradient id="paint0_linear_164_396" x1="19.6164" y1="108" x2="167.783" y2="120.884" gradientUnits="userSpaceOnUse">
<stop stop-color="#EDEDED"/>
<stop offset="0.269231" stop-color="#F7F7F7"/>
<stop offset="0.543269" stop-color="#EDEDED"/>
</linearGradient>
<linearGradient id="paint1_linear_164_396" x1="91.2672" y1="14" x2="155.901" y2="16.4368" gradientUnits="userSpaceOnUse">
<stop stop-color="#EDEDED"/>
<stop offset="0.269231" stop-color="#F7F7F7"/>
<stop offset="0.543269" stop-color="#EDEDED"/>
</linearGradient>
</defs>
</svg>
