<svg width="90" height="90" viewBox="0 0 90 90" fill="none" xmlns="http://www.w3.org/2000/svg">
<path d="M45 28.125C47.8125 17.0227 58.435 11.3537 81.5625 11.25C81.9323 11.2486 82.2986 11.3204 82.6405 11.4613C82.9823 11.6021 83.2929 11.8092 83.5544 12.0707C83.8158 12.3321 84.0229 12.6427 84.1638 12.9846C84.3046 13.3264 84.3764 13.6928 84.375 14.0625V64.6875C84.375 65.4334 84.0787 66.1488 83.5513 66.6763C83.0238 67.2037 82.3084 67.5 81.5625 67.5C59.0625 67.5 50.3701 72.0369 45 78.75M45 28.125C42.1875 17.0227 31.5651 11.3537 8.43752 11.25C8.06779 11.2486 7.70143 11.3204 7.35958 11.4613C7.01772 11.6021 6.70712 11.8092 6.44567 12.0707C6.18423 12.3321 5.97712 12.6427 5.83627 12.9846C5.69542 13.3264 5.62363 13.6928 5.62502 14.0625V64.3483C5.62502 66.085 6.7008 67.5 8.43752 67.5C30.9375 67.5 39.6615 72.0703 45 78.75M45 28.125V78.75" stroke="#2D6A9E" stroke-width="2" stroke-linecap="round" stroke-linejoin="round"/>
</svg>
