<svg width="50" height="44" viewBox="0 0 50 44" fill="none" xmlns="http://www.w3.org/2000/svg">
<path d="M14 16.5V13.75C14 13.0207 14.2897 12.3212 14.8055 11.8055C15.3212 11.2897 16.0207 11 16.75 11H19.5M14 27.5V30.25C14 30.9793 14.2897 31.6788 14.8055 32.1945C15.3212 32.7103 16.0207 33 16.75 33H19.5M30.5 11H33.25C33.9793 11 34.6788 11.2897 35.1945 11.8055C35.7103 12.3212 36 13.0207 36 13.75V16.5M30.5 33H33.25C33.9793 33 34.6788 32.7103 35.1945 32.1945C35.7103 31.6788 36 30.9793 36 30.25V27.5M19.5 22H30.5M19.5 17.875H27.75M19.5 26.125H25" stroke="#0A2B42" stroke-width="1.8" stroke-linecap="round" stroke-linejoin="round"/>
</svg>
