<svg width="35" height="36" viewBox="0 0 35 36" fill="none" xmlns="http://www.w3.org/2000/svg">
<path d="M35 18C35 19.4983 32.4754 20.7129 29.3611 20.7129C26.2468 20.7129 23.7222 19.4983 23.7222 18C23.7222 16.5017 26.2468 15.2871 29.3611 15.2871C32.4754 15.2871 35 16.5017 35 18Z" fill="#0A2B42"/>
<path d="M11.2778 18C11.2778 19.4983 8.75316 20.7129 5.63889 20.7129C2.52462 20.7129 0 19.4983 0 18C0 16.5017 2.52462 15.2871 5.63889 15.2871C8.75316 15.2871 11.2778 16.5017 11.2778 18Z" fill="#0A2B42"/>
<path d="M18.4506 12.9186C16.9472 12.9186 15.7284 10.0267 15.7284 6.45932C15.7284 2.89194 16.9472 0 18.4506 0C19.9541 0 21.1728 2.89194 21.1728 6.45932C21.1728 10.0267 19.9541 12.9186 18.4506 12.9186Z" fill="#0A2B42"/>
<path d="M27.8289 8.22314C28.892 9.2826 28.3175 11.5729 26.5456 13.3387C24.7738 15.1044 22.4757 15.677 21.4126 14.6175C20.3495 13.5581 20.924 11.2678 22.6958 9.50202C24.4677 7.73626 26.7658 7.16369 27.8289 8.22314Z" fill="#0A2B42"/>
<path d="M3.60993 4.17246C2.54684 5.23192 4.14734 8.54467 7.18475 11.5717C10.2222 14.5987 13.5463 16.1938 14.6094 15.1343C15.6725 14.0748 14.072 10.7621 11.0346 7.73506C7.99715 4.70803 4.67303 3.113 3.60993 4.17246Z" fill="#0A2B42"/>
<path d="M18.6668 23.0814C17.1634 23.0814 15.9446 25.9733 15.9446 29.5407C15.9446 33.1081 17.1634 36 18.6668 36C20.1703 36 21.389 33.1081 21.389 29.5407C21.389 25.9733 20.1703 23.0814 18.6668 23.0814Z" fill="#0A2B42"/>
<path d="M28.0451 27.7769C29.1082 26.7174 28.5337 24.4271 26.7618 22.6613C24.99 20.8956 22.6919 20.323 21.6288 21.3825C20.5657 22.4419 21.1402 24.7322 22.912 26.498C24.6839 28.2637 26.982 28.8363 28.0451 27.7769Z" fill="#0A2B42"/>
<path d="M3.82614 31.8275C2.76304 30.7681 4.36354 27.4553 7.40095 24.4283C10.4384 21.4013 13.7625 19.8062 14.8256 20.8657C15.8887 21.9252 14.2882 25.2379 11.2508 28.2649C8.21335 31.292 4.88923 32.887 3.82614 31.8275Z" fill="#0A2B42"/>
<path d="M21.2161 17.9139C21.2161 19.6976 19.7652 21.1435 17.9753 21.1435C16.1855 21.1435 14.7346 19.6976 14.7346 17.9139C14.7346 16.1302 16.1855 14.6842 17.9753 14.6842C19.7652 14.6842 21.2161 16.1302 21.2161 17.9139Z" fill="#0A2B42"/>
</svg>
