<svg width="198" height="138" viewBox="0 0 198 138" fill="none" xmlns="http://www.w3.org/2000/svg">
<rect x="15.5" width="167" height="138" rx="4" fill="white"/>
<circle cx="99.5" cy="69" r="66.5" stroke="url(#paint0_linear_164_407)"/>
<circle cx="67" cy="67" r="66.5" transform="matrix(-1 0 0 1 166.5 2)" fill="url(#paint1_linear_164_407)" stroke="url(#paint2_linear_164_407)"/>
<circle cx="99.5" cy="69" r="54.5" fill="white" stroke="url(#paint3_linear_164_407)"/>
<path d="M99.5 25.5C123.524 25.5 143 44.9756 143 69C143 93.0244 123.524 112.5 99.5 112.5C75.4756 112.5 56 93.0244 56 69C56 44.9756 75.4756 25.5 99.5 25.5Z" fill="url(#paint4_linear_164_407)" stroke="url(#paint5_linear_164_407)"/>
<circle cx="99.5" cy="69.5" r="33" fill="white" stroke="url(#paint6_linear_164_407)"/>
<rect y="56" width="198" height="25" rx="4" fill="#0A2B42"/>
<path d="M11.638 64.18H13.318L15.166 69.808C15.2593 70.0787 15.348 70.3447 15.432 70.606C15.516 70.858 15.5953 71.1147 15.67 71.376H15.698C15.7727 71.1147 15.8473 70.8627 15.922 70.62C16.006 70.3773 16.0993 70.1067 16.202 69.808L18.008 64.18H19.688L20.458 73H19.17L18.806 68.324C18.7687 67.8667 18.7407 67.414 18.722 66.966C18.7033 66.5087 18.6847 66.0467 18.666 65.58H18.638C18.5073 66.0373 18.372 66.4947 18.232 66.952C18.1013 67.4093 17.9613 67.8667 17.812 68.324L16.258 73H15.082L13.528 68.31C13.3693 67.834 13.2247 67.3813 13.094 66.952C12.9633 66.5133 12.8327 66.056 12.702 65.58H12.674C12.6553 66.0373 12.6273 66.4947 12.59 66.952C12.562 67.4093 12.5293 67.8667 12.492 68.324L12.156 73H10.896L11.638 64.18ZM28.3337 69.64C28.3337 70.1907 28.2497 70.6853 28.0817 71.124C27.9137 71.5533 27.6803 71.9173 27.3817 72.216C27.0923 72.5147 26.7517 72.7433 26.3597 72.902C25.9677 73.0513 25.543 73.126 25.0857 73.126C24.6283 73.126 24.2037 73.056 23.8117 72.916C23.429 72.7667 23.093 72.552 22.8037 72.272C22.5237 71.9827 22.2997 71.6327 22.1317 71.222C21.973 70.802 21.8937 70.3213 21.8937 69.78C21.8937 69.2293 21.9777 68.7393 22.1457 68.31C22.3137 67.8807 22.5423 67.5213 22.8317 67.232C23.1303 66.9333 23.4757 66.7093 23.8677 66.56C24.2597 66.4013 24.6843 66.322 25.1417 66.322C25.599 66.322 26.019 66.392 26.4017 66.532C26.7937 66.672 27.1297 66.882 27.4097 67.162C27.699 67.442 27.923 67.792 28.0817 68.212C28.2497 68.6227 28.3337 69.0987 28.3337 69.64ZM27.0457 69.71C27.0457 69.2713 26.9897 68.898 26.8777 68.59C26.7657 68.282 26.6163 68.03 26.4297 67.834C26.2523 67.638 26.047 67.498 25.8137 67.414C25.5803 67.3207 25.3423 67.274 25.0997 67.274C24.857 67.274 24.619 67.3113 24.3857 67.386C24.1523 67.4607 23.947 67.5913 23.7697 67.778C23.5923 67.9647 23.4477 68.2167 23.3357 68.534C23.233 68.842 23.1817 69.234 23.1817 69.71C23.1817 70.1487 23.2377 70.5267 23.3497 70.844C23.4617 71.152 23.6063 71.404 23.7837 71.6C23.9703 71.796 24.1803 71.9407 24.4137 72.034C24.647 72.1273 24.885 72.174 25.1277 72.174C25.3703 72.174 25.6083 72.1367 25.8417 72.062C26.075 71.978 26.2803 71.8427 26.4577 71.656C26.635 71.46 26.775 71.208 26.8777 70.9C26.9897 70.5827 27.0457 70.186 27.0457 69.71ZM33.7421 66.42H35.0581L32.6081 73H31.4041L28.9261 66.42H30.2561L31.7401 70.942L31.9921 71.978H32.0481L32.2861 70.956L33.7421 66.42ZM41.6399 69.85H36.9219V69.906C36.9219 70.634 37.1179 71.194 37.5099 71.586C37.9112 71.978 38.4526 72.174 39.1339 72.174C39.4886 72.174 39.8012 72.146 40.0719 72.09C40.3519 72.034 40.6552 71.9407 40.9819 71.81L41.2339 72.72C40.9632 72.8413 40.6412 72.9393 40.2679 73.014C39.9039 73.0887 39.5119 73.126 39.0919 73.126C38.6159 73.126 38.1679 73.0607 37.7479 72.93C37.3372 72.7993 36.9732 72.5987 36.6559 72.328C36.3386 72.048 36.0866 71.6933 35.8999 71.264C35.7226 70.8347 35.6339 70.3213 35.6339 69.724C35.6339 69.2107 35.7086 68.744 35.8579 68.324C36.0166 67.904 36.2359 67.5493 36.5159 67.26C36.7959 66.9613 37.1319 66.7327 37.5239 66.574C37.9252 66.406 38.3732 66.322 38.8679 66.322C39.2879 66.322 39.6659 66.392 40.0019 66.532C40.3472 66.672 40.6412 66.868 40.8839 67.12C41.1266 67.372 41.3132 67.6753 41.4439 68.03C41.5746 68.3847 41.6399 68.7767 41.6399 69.206V69.85ZM40.3659 68.968C40.3659 68.7253 40.3332 68.5013 40.2679 68.296C40.2119 68.0813 40.1186 67.8947 39.9879 67.736C39.8666 67.5773 39.7079 67.4513 39.5119 67.358C39.3159 67.2647 39.0779 67.218 38.7979 67.218C38.2846 67.218 37.8646 67.3813 37.5379 67.708C37.2206 68.0347 37.0246 68.464 36.9499 68.996L40.3659 68.968ZM48.6761 62.99C48.9374 62.99 49.2081 63.0273 49.4881 63.102C49.7774 63.1767 50.0341 63.27 50.2581 63.382L50.0061 64.236C49.8194 64.1613 49.6421 64.1053 49.4741 64.068C49.3061 64.0213 49.1288 63.998 48.9421 63.998C48.4941 63.998 48.1721 64.124 47.9761 64.376C47.7894 64.628 47.6961 65.0573 47.6961 65.664V66.42H49.6981V67.344H47.6961V73H46.4781V67.344H45.5121V66.42H46.4781V65.258C46.4781 64.53 46.6648 63.97 47.0381 63.578C47.4208 63.186 47.9668 62.99 48.6761 62.99ZM56.6071 69.64C56.6071 70.1907 56.5231 70.6853 56.3551 71.124C56.1871 71.5533 55.9538 71.9173 55.6551 72.216C55.3658 72.5147 55.0251 72.7433 54.6331 72.902C54.2411 73.0513 53.8164 73.126 53.3591 73.126C52.9018 73.126 52.4771 73.056 52.0851 72.916C51.7024 72.7667 51.3664 72.552 51.0771 72.272C50.7971 71.9827 50.5731 71.6327 50.4051 71.222C50.2464 70.802 50.1671 70.3213 50.1671 69.78C50.1671 69.2293 50.2511 68.7393 50.4191 68.31C50.5871 67.8807 50.8158 67.5213 51.1051 67.232C51.4038 66.9333 51.7491 66.7093 52.1411 66.56C52.5331 66.4013 52.9578 66.322 53.4151 66.322C53.8724 66.322 54.2924 66.392 54.6751 66.532C55.0671 66.672 55.4031 66.882 55.6831 67.162C55.9724 67.442 56.1964 67.792 56.3551 68.212C56.5231 68.6227 56.6071 69.0987 56.6071 69.64ZM55.3191 69.71C55.3191 69.2713 55.2631 68.898 55.1511 68.59C55.0391 68.282 54.8898 68.03 54.7031 67.834C54.5258 67.638 54.3204 67.498 54.0871 67.414C53.8538 67.3207 53.6158 67.274 53.3731 67.274C53.1304 67.274 52.8924 67.3113 52.6591 67.386C52.4258 67.4607 52.2204 67.5913 52.0431 67.778C51.8658 67.9647 51.7211 68.2167 51.6091 68.534C51.5064 68.842 51.4551 69.234 51.4551 69.71C51.4551 70.1487 51.5111 70.5267 51.6231 70.844C51.7351 71.152 51.8798 71.404 52.0571 71.6C52.2438 71.796 52.4538 71.9407 52.6871 72.034C52.9204 72.1273 53.1584 72.174 53.4011 72.174C53.6438 72.174 53.8818 72.1367 54.1151 72.062C54.3484 71.978 54.5538 71.8427 54.7311 71.656C54.9084 71.46 55.0484 71.208 55.1511 70.9C55.2631 70.5827 55.3191 70.186 55.3191 69.71ZM58.0783 73V66.42H59.0023L59.2123 67.736C59.371 67.316 59.6323 66.9753 59.9963 66.714C60.3603 66.4527 60.7803 66.322 61.2563 66.322C61.499 66.322 61.6996 66.3407 61.8583 66.378C62.017 66.4153 62.1616 66.462 62.2923 66.518L62.0543 67.596C61.9423 67.54 61.8163 67.4933 61.6763 67.456C61.5456 67.4187 61.387 67.4 61.2003 67.4C60.9296 67.4 60.6776 67.4467 60.4443 67.54C60.2203 67.6333 60.0196 67.7733 59.8423 67.96C59.6743 68.1467 59.539 68.38 59.4363 68.66C59.343 68.9307 59.2963 69.2433 59.2963 69.598V73H58.0783ZM62.7224 66.42H64.0384L65.1584 70.564L65.4104 72.034H65.4664L65.7744 70.564L66.9084 66.42H68.2384L69.4004 70.564L69.6944 72.034H69.7504L70.0584 70.564L71.1504 66.42H72.4104L70.4084 73H69.0084L67.8884 68.968L67.5664 67.344L67.2304 68.968L66.0824 73H64.7524L62.7224 66.42ZM73.5572 67.008C73.7812 66.896 73.9912 66.798 74.1872 66.714C74.3832 66.6207 74.5792 66.546 74.7752 66.49C74.9712 66.434 75.1718 66.392 75.3772 66.364C75.5825 66.336 75.8065 66.322 76.0492 66.322C76.4132 66.322 76.7445 66.364 77.0432 66.448C77.3512 66.5227 77.6125 66.6533 77.8272 66.84C78.0512 67.0267 78.2238 67.274 78.3452 67.582C78.4665 67.8807 78.5272 68.2587 78.5272 68.716V73H77.5052L77.3512 72.272H77.3232C77.0338 72.58 76.7165 72.7993 76.3712 72.93C76.0258 73.0607 75.6432 73.126 75.2232 73.126C74.9058 73.126 74.6118 73.084 74.3412 73C74.0798 72.9067 73.8512 72.7807 73.6552 72.622C73.4592 72.454 73.3052 72.2533 73.1932 72.02C73.0905 71.7867 73.0392 71.5253 73.0392 71.236C73.0392 70.5453 73.3098 70.0227 73.8512 69.668C74.4018 69.304 75.1252 69.122 76.0212 69.122H77.2812V68.562C77.2812 68.086 77.1598 67.764 76.9172 67.596C76.6745 67.4187 76.3478 67.33 75.9372 67.33C75.6945 67.33 75.4145 67.372 75.0972 67.456C74.7892 67.5307 74.4345 67.68 74.0332 67.904L73.5572 67.008ZM77.2952 69.962L76.2592 69.99C75.5592 70.0087 75.0598 70.1347 74.7612 70.368C74.4718 70.592 74.3272 70.8673 74.3272 71.194C74.3272 71.39 74.3598 71.558 74.4252 71.698C74.4905 71.8287 74.5745 71.9313 74.6772 72.006C74.7892 72.0807 74.9152 72.1367 75.0552 72.174C75.2045 72.202 75.3585 72.216 75.5172 72.216C75.8252 72.216 76.1378 72.146 76.4552 72.006C76.7725 71.8567 77.0525 71.6233 77.2952 71.306V69.962ZM80.3088 73V66.42H81.2328L81.4428 67.736C81.6014 67.316 81.8628 66.9753 82.2268 66.714C82.5908 66.4527 83.0108 66.322 83.4868 66.322C83.7294 66.322 83.9301 66.3407 84.0888 66.378C84.2474 66.4153 84.3921 66.462 84.5228 66.518L84.2848 67.596C84.1728 67.54 84.0468 67.4933 83.9068 67.456C83.7761 67.4187 83.6174 67.4 83.4308 67.4C83.1601 67.4 82.9081 67.4467 82.6748 67.54C82.4508 67.6333 82.2501 67.7733 82.0728 67.96C81.9048 68.1467 81.7694 68.38 81.6668 68.66C81.5734 68.9307 81.5268 69.2433 81.5268 69.598V73H80.3088ZM89.4899 63.06H90.7219V73H89.6859L89.5319 72.272H89.4899C89.2006 72.5707 88.9066 72.79 88.6079 72.93C88.3186 73.0607 87.9499 73.126 87.5019 73.126C87.1473 73.126 86.8019 73.056 86.4659 72.916C86.1393 72.776 85.8453 72.566 85.5839 72.286C85.3226 72.006 85.1126 71.656 84.9539 71.236C84.7953 70.8067 84.7159 70.3027 84.7159 69.724C84.7159 69.2107 84.7813 68.744 84.9119 68.324C85.0519 67.904 85.2479 67.5447 85.4999 67.246C85.7519 66.9473 86.0599 66.7187 86.4239 66.56C86.7879 66.4013 87.2033 66.322 87.6699 66.322C88.0153 66.322 88.3419 66.378 88.6499 66.49C88.9673 66.5927 89.2473 66.7513 89.4899 66.966V63.06ZM89.4899 68.002C89.0513 67.5073 88.5333 67.26 87.9359 67.26C87.6839 67.26 87.4366 67.3067 87.1939 67.4C86.9606 67.484 86.7506 67.624 86.5639 67.82C86.3866 68.016 86.2419 68.268 86.1299 68.576C86.0179 68.884 85.9619 69.2527 85.9619 69.682C85.9619 70.13 86.0133 70.5127 86.1159 70.83C86.2186 71.138 86.3539 71.3947 86.5219 71.6C86.6993 71.796 86.8953 71.9407 87.1099 72.034C87.3339 72.1273 87.5579 72.174 87.7819 72.174C88.4819 72.174 89.0513 71.8707 89.4899 71.264V68.002ZM94.9333 66.42H96.2493L97.3693 70.564L97.6213 72.034H97.6773L97.9853 70.564L99.1193 66.42H100.449L101.611 70.564L101.905 72.034H101.961L102.269 70.564L103.361 66.42H104.621L102.619 73H101.219L100.099 68.968L99.7773 67.344L99.4413 68.968L98.2933 73H96.9633L94.9333 66.42ZM105.894 73V66.42H107.126V73H105.894ZM106.51 64.726C106.295 64.726 106.109 64.656 105.95 64.516C105.801 64.3667 105.726 64.1847 105.726 63.97C105.726 63.7553 105.801 63.5733 105.95 63.424C106.109 63.2747 106.295 63.2 106.51 63.2C106.715 63.2 106.897 63.2747 107.056 63.424C107.215 63.5733 107.294 63.7553 107.294 63.97C107.294 64.1847 107.215 64.3667 107.056 64.516C106.897 64.656 106.715 64.726 106.51 64.726ZM112.601 67.344H110.669V71.166C110.669 71.4927 110.749 71.712 110.907 71.824C111.075 71.936 111.29 71.992 111.551 71.992C111.738 71.992 111.943 71.9733 112.167 71.936C112.391 71.8893 112.587 71.838 112.755 71.782L112.951 72.72C112.765 72.7947 112.527 72.86 112.237 72.916C111.948 72.972 111.645 73 111.327 73C110.674 73 110.198 72.86 109.899 72.58C109.601 72.2907 109.451 71.8753 109.451 71.334V67.344H108.471V66.42H109.451V64.32H110.669V66.42H112.601V67.344ZM115.489 73H114.257V63.06H115.489V67.26C115.797 66.9893 116.138 66.7653 116.511 66.588C116.884 66.4107 117.295 66.322 117.743 66.322C118.107 66.322 118.424 66.378 118.695 66.49C118.966 66.5927 119.185 66.742 119.353 66.938C119.53 67.1247 119.661 67.3487 119.745 67.61C119.838 67.8713 119.885 68.156 119.885 68.464V73H118.653V68.772C118.653 68.268 118.55 67.904 118.345 67.68C118.14 67.4467 117.827 67.33 117.407 67.33C117.09 67.33 116.768 67.4093 116.441 67.568C116.124 67.7267 115.806 67.9507 115.489 68.24V73ZM128.029 72.174C128.328 72.174 128.589 72.1413 128.813 72.076C129.037 72.0107 129.256 71.9267 129.471 71.824L129.737 72.748C129.233 73 128.631 73.126 127.931 73.126C127.455 73.126 127.007 73.056 126.587 72.916C126.176 72.776 125.812 72.566 125.495 72.286C125.187 71.9967 124.944 71.642 124.767 71.222C124.59 70.7927 124.501 70.2933 124.501 69.724C124.501 69.2013 124.585 68.73 124.753 68.31C124.921 67.89 125.154 67.5353 125.453 67.246C125.752 66.9473 126.111 66.7187 126.531 66.56C126.951 66.4013 127.413 66.322 127.917 66.322C128.206 66.322 128.486 66.3453 128.757 66.392C129.037 66.4293 129.354 66.5273 129.709 66.686L129.429 67.624C129 67.3813 128.538 67.26 128.043 67.26C127.362 67.26 126.811 67.4747 126.391 67.904C125.971 68.324 125.761 68.9167 125.761 69.682C125.761 70.158 125.826 70.5547 125.957 70.872C126.088 71.1893 126.26 71.446 126.475 71.642C126.69 71.8287 126.932 71.964 127.203 72.048C127.474 72.132 127.749 72.174 128.029 72.174ZM136.711 69.64C136.711 70.1907 136.627 70.6853 136.459 71.124C136.291 71.5533 136.057 71.9173 135.759 72.216C135.469 72.5147 135.129 72.7433 134.737 72.902C134.345 73.0513 133.92 73.126 133.463 73.126C133.005 73.126 132.581 73.056 132.189 72.916C131.806 72.7667 131.47 72.552 131.181 72.272C130.901 71.9827 130.677 71.6327 130.509 71.222C130.35 70.802 130.271 70.3213 130.271 69.78C130.271 69.2293 130.355 68.7393 130.523 68.31C130.691 67.8807 130.919 67.5213 131.209 67.232C131.507 66.9333 131.853 66.7093 132.245 66.56C132.637 66.4013 133.061 66.322 133.519 66.322C133.976 66.322 134.396 66.392 134.779 66.532C135.171 66.672 135.507 66.882 135.787 67.162C136.076 67.442 136.3 67.792 136.459 68.212C136.627 68.6227 136.711 69.0987 136.711 69.64ZM135.423 69.71C135.423 69.2713 135.367 68.898 135.255 68.59C135.143 68.282 134.993 68.03 134.807 67.834C134.629 67.638 134.424 67.498 134.191 67.414C133.957 67.3207 133.719 67.274 133.477 67.274C133.234 67.274 132.996 67.3113 132.763 67.386C132.529 67.4607 132.324 67.5913 132.147 67.778C131.969 67.9647 131.825 68.2167 131.713 68.534C131.61 68.842 131.559 69.234 131.559 69.71C131.559 70.1487 131.615 70.5267 131.727 70.844C131.839 71.152 131.983 71.404 132.161 71.6C132.347 71.796 132.557 71.9407 132.791 72.034C133.024 72.1273 133.262 72.174 133.505 72.174C133.747 72.174 133.985 72.1367 134.219 72.062C134.452 71.978 134.657 71.8427 134.835 71.656C135.012 71.46 135.152 71.208 135.255 70.9C135.367 70.5827 135.423 70.186 135.423 69.71ZM139.442 73H138.21V66.42H139.176L139.358 67.33C139.684 67.0033 140.025 66.756 140.38 66.588C140.744 66.4107 141.159 66.322 141.626 66.322C142.298 66.322 142.825 66.5133 143.208 66.896C143.59 67.2693 143.782 67.792 143.782 68.464V73H142.55V68.646C142.55 68.2447 142.442 67.9273 142.228 67.694C142.022 67.4513 141.705 67.33 141.276 67.33C140.622 67.33 140.011 67.624 139.442 68.212V73ZM149.972 73V67.344H147.186V73H145.968V67.344H145.002V66.42H145.968V65.678C145.968 65.286 146.034 64.9267 146.164 64.6C146.295 64.264 146.477 63.9793 146.71 63.746C146.953 63.5033 147.242 63.3167 147.578 63.186C147.924 63.0553 148.306 62.99 148.726 62.99C148.988 62.99 149.282 63.0273 149.608 63.102C149.944 63.1767 150.224 63.27 150.448 63.382L150.196 64.236C150.01 64.1613 149.809 64.1053 149.594 64.068C149.38 64.0213 149.179 63.998 148.992 63.998C148.404 63.998 147.956 64.1333 147.648 64.404C147.34 64.6653 147.186 65.132 147.186 65.804V66.42H151.204V73H149.972ZM157.412 63.06H158.644V73H157.608L157.454 72.272H157.412C157.122 72.5707 156.828 72.79 156.53 72.93C156.24 73.0607 155.872 73.126 155.424 73.126C155.069 73.126 154.724 73.056 154.388 72.916C154.061 72.776 153.767 72.566 153.506 72.286C153.244 72.006 153.034 71.656 152.876 71.236C152.717 70.8067 152.638 70.3027 152.638 69.724C152.638 69.2107 152.703 68.744 152.834 68.324C152.974 67.904 153.17 67.5447 153.422 67.246C153.674 66.9473 153.982 66.7187 154.346 66.56C154.71 66.4013 155.125 66.322 155.592 66.322C155.937 66.322 156.264 66.378 156.572 66.49C156.889 66.5927 157.169 66.7513 157.412 66.966V63.06ZM157.412 68.002C156.973 67.5073 156.455 67.26 155.858 67.26C155.606 67.26 155.358 67.3067 155.116 67.4C154.882 67.484 154.672 67.624 154.486 67.82C154.308 68.016 154.164 68.268 154.052 68.576C153.94 68.884 153.884 69.2527 153.884 69.682C153.884 70.13 153.935 70.5127 154.038 70.83C154.14 71.138 154.276 71.3947 154.444 71.6C154.621 71.796 154.817 71.9407 155.032 72.034C155.256 72.1273 155.48 72.174 155.704 72.174C156.404 72.174 156.973 71.8707 157.412 71.264V68.002ZM166.15 69.85H161.432V69.906C161.432 70.634 161.628 71.194 162.02 71.586C162.421 71.978 162.962 72.174 163.644 72.174C163.998 72.174 164.311 72.146 164.582 72.09C164.862 72.034 165.165 71.9407 165.492 71.81L165.744 72.72C165.473 72.8413 165.151 72.9393 164.778 73.014C164.414 73.0887 164.022 73.126 163.602 73.126C163.126 73.126 162.678 73.0607 162.258 72.93C161.847 72.7993 161.483 72.5987 161.166 72.328C160.848 72.048 160.596 71.6933 160.41 71.264C160.232 70.8347 160.144 70.3213 160.144 69.724C160.144 69.2107 160.218 68.744 160.368 68.324C160.526 67.904 160.746 67.5493 161.026 67.26C161.306 66.9613 161.642 66.7327 162.034 66.574C162.435 66.406 162.883 66.322 163.378 66.322C163.798 66.322 164.176 66.392 164.512 66.532C164.857 66.672 165.151 66.868 165.394 67.12C165.636 67.372 165.823 67.6753 165.954 68.03C166.084 68.3847 166.15 68.7767 166.15 69.206V69.85ZM164.876 68.968C164.876 68.7253 164.843 68.5013 164.778 68.296C164.722 68.0813 164.628 67.8947 164.498 67.736C164.376 67.5773 164.218 67.4513 164.022 67.358C163.826 67.2647 163.588 67.218 163.308 67.218C162.794 67.218 162.374 67.3813 162.048 67.708C161.73 68.0347 161.534 68.464 161.46 68.996L164.876 68.968ZM168.836 73H167.604V66.42H168.57L168.752 67.33C169.079 67.0033 169.42 66.756 169.774 66.588C170.138 66.4107 170.554 66.322 171.02 66.322C171.692 66.322 172.22 66.5133 172.602 66.896C172.985 67.2693 173.176 67.792 173.176 68.464V73H171.944V68.646C171.944 68.2447 171.837 67.9273 171.622 67.694C171.417 67.4513 171.1 67.33 170.67 67.33C170.017 67.33 169.406 67.624 168.836 68.212V73ZM178.205 72.174C178.504 72.174 178.765 72.1413 178.989 72.076C179.213 72.0107 179.432 71.9267 179.647 71.824L179.913 72.748C179.409 73 178.807 73.126 178.107 73.126C177.631 73.126 177.183 73.056 176.763 72.916C176.352 72.776 175.988 72.566 175.671 72.286C175.363 71.9967 175.12 71.642 174.943 71.222C174.766 70.7927 174.677 70.2933 174.677 69.724C174.677 69.2013 174.761 68.73 174.929 68.31C175.097 67.89 175.33 67.5353 175.629 67.246C175.928 66.9473 176.287 66.7187 176.707 66.56C177.127 66.4013 177.589 66.322 178.093 66.322C178.382 66.322 178.662 66.3453 178.933 66.392C179.213 66.4293 179.53 66.5273 179.885 66.686L179.605 67.624C179.176 67.3813 178.714 67.26 178.219 67.26C177.538 67.26 176.987 67.4747 176.567 67.904C176.147 68.324 175.937 68.9167 175.937 69.682C175.937 70.158 176.002 70.5547 176.133 70.872C176.264 71.1893 176.436 71.446 176.651 71.642C176.866 71.8287 177.108 71.964 177.379 72.048C177.65 72.132 177.925 72.174 178.205 72.174ZM186.507 69.85H181.789V69.906C181.789 70.634 181.985 71.194 182.377 71.586C182.778 71.978 183.32 72.174 184.001 72.174C184.356 72.174 184.668 72.146 184.939 72.09C185.219 72.034 185.522 71.9407 185.849 71.81L186.101 72.72C185.83 72.8413 185.508 72.9393 185.135 73.014C184.771 73.0887 184.379 73.126 183.959 73.126C183.483 73.126 183.035 73.0607 182.615 72.93C182.204 72.7993 181.84 72.5987 181.523 72.328C181.206 72.048 180.954 71.6933 180.767 71.264C180.59 70.8347 180.501 70.3213 180.501 69.724C180.501 69.2107 180.576 68.744 180.725 68.324C180.884 67.904 181.103 67.5493 181.383 67.26C181.663 66.9613 181.999 66.7327 182.391 66.574C182.792 66.406 183.24 66.322 183.735 66.322C184.155 66.322 184.533 66.392 184.869 66.532C185.214 66.672 185.508 66.868 185.751 67.12C185.994 67.372 186.18 67.6753 186.311 68.03C186.442 68.3847 186.507 68.7767 186.507 69.206V69.85ZM185.233 68.968C185.233 68.7253 185.2 68.5013 185.135 68.296C185.079 68.0813 184.986 67.8947 184.855 67.736C184.734 67.5773 184.575 67.4513 184.379 67.358C184.183 67.2647 183.945 67.218 183.665 67.218C183.152 67.218 182.732 67.3813 182.405 67.708C182.088 68.0347 181.892 68.464 181.817 68.996L185.233 68.968Z" fill="white"/>
<defs>
<linearGradient id="paint0_linear_164_407" x1="33.0776" y1="2" x2="172.958" y2="3.19086" gradientUnits="userSpaceOnUse">
<stop stop-color="#EDEDED"/>
<stop offset="0.269231" stop-color="#F7F7F7"/>
<stop offset="0.543269" stop-color="#EDEDED"/>
</linearGradient>
<linearGradient id="paint1_linear_164_407" x1="0.577586" y1="3.25699e-06" x2="140.458" y2="1.19086" gradientUnits="userSpaceOnUse">
<stop stop-color="#EDEDED"/>
<stop offset="0.269231" stop-color="#F7F7F7"/>
<stop offset="0.543269" stop-color="#EDEDED"/>
</linearGradient>
<linearGradient id="paint2_linear_164_407" x1="0.577586" y1="3.25699e-06" x2="140.458" y2="1.19086" gradientUnits="userSpaceOnUse">
<stop stop-color="#EDEDED"/>
<stop offset="0.269231" stop-color="#F7F7F7"/>
<stop offset="0.543269" stop-color="#EDEDED"/>
</linearGradient>
<linearGradient id="paint3_linear_164_407" x1="44.9741" y1="14" x2="159.802" y2="14.9776" gradientUnits="userSpaceOnUse">
<stop stop-color="#EDEDED"/>
<stop offset="0.269231" stop-color="#F7F7F7"/>
<stop offset="0.543269" stop-color="#EDEDED"/>
</linearGradient>
<linearGradient id="paint4_linear_164_407" x1="55.8793" y1="25" x2="147.741" y2="25.7821" gradientUnits="userSpaceOnUse">
<stop stop-color="#EDEDED"/>
<stop offset="0.269231" stop-color="#F7F7F7"/>
<stop offset="0.543269" stop-color="#EDEDED"/>
</linearGradient>
<linearGradient id="paint5_linear_164_407" x1="55.8793" y1="25" x2="147.741" y2="25.7821" gradientUnits="userSpaceOnUse">
<stop stop-color="#EDEDED"/>
<stop offset="0.269231" stop-color="#F7F7F7"/>
<stop offset="0.543269" stop-color="#EDEDED"/>
</linearGradient>
<linearGradient id="paint6_linear_164_407" x1="66.2888" y1="36" x2="136.229" y2="36.5954" gradientUnits="userSpaceOnUse">
<stop stop-color="#EDEDED"/>
<stop offset="0.269231" stop-color="#F7F7F7"/>
<stop offset="0.543269" stop-color="#EDEDED"/>
</linearGradient>
</defs>
</svg>
