<svg width="66" height="50" viewBox="0 0 66 50" fill="none" xmlns="http://www.w3.org/2000/svg">
<g clip-path="url(#clip0_164_238)">
<path d="M7.80322 0.0537319C8.74875 -0.0704998 9.73682 0.0236345 10.6134 0.411058C11.0169 0.60573 11.412 0.834342 11.731 1.1526C12.1068 1.50865 12.411 1.93898 12.6159 2.41285C12.6372 2.41285 12.6785 2.41221 12.6991 2.41221C13.0046 2.06129 13.3011 1.69948 13.6556 1.3953C14.1351 0.986109 14.6578 0.610212 15.2553 0.391206C16.1841 0.0338804 17.2069 -0.0935529 18.1924 0.0710219C19.078 0.205499 19.9385 0.578194 20.5901 1.19935C21.1083 1.70588 21.4989 2.33409 21.7612 3.00647C22.1131 3.94141 22.282 4.93975 22.2878 5.93744C22.2833 6.34151 22.3071 6.74559 22.2904 7.14966C22.2775 9.39287 22.2929 11.6367 22.2775 13.8806C21.5981 13.9062 20.9181 13.8691 20.2388 13.8742C19.7348 13.8761 19.2314 13.8665 18.728 13.887C18.4464 13.8844 18.1647 13.8991 17.885 13.8691C17.885 12.2566 17.8785 10.6435 17.8811 9.03042C17.874 8.05514 17.9017 7.07794 17.8444 6.1033C17.7799 5.41746 17.6117 4.69897 17.1502 4.16426C16.7751 3.75698 16.2176 3.50724 15.6594 3.53734C15.0935 3.56359 14.5424 3.81974 14.1589 4.23406C13.6923 4.72266 13.4506 5.39313 13.4384 6.06167C13.4094 8.22228 13.4384 10.3829 13.4364 12.5435C13.4364 12.9892 13.4396 13.4355 13.4216 13.8819C12.7668 13.8927 12.1126 13.8658 11.4577 13.8691C10.6572 13.862 9.85734 13.8703 9.05684 13.871C9.01559 11.3665 9.08648 8.86072 9.01494 6.3556C8.99625 5.65952 8.86025 4.94295 8.47031 4.35253C8.18607 3.92988 7.7233 3.64236 7.22315 3.54951C6.5741 3.46113 5.89541 3.70768 5.43844 4.1713C5.11424 4.49789 4.87125 4.9026 4.71979 5.33485C4.58057 5.76646 4.59732 6.22561 4.58701 6.67322C4.56896 8.99264 4.59281 11.3127 4.58186 13.6321C4.58057 13.7102 4.5767 13.7896 4.57219 13.8691C3.43652 13.8774 2.30086 13.8607 1.1652 13.871C0.846152 13.8729 0.527754 13.8703 0.208711 13.8646C0.21 11.6124 0.207422 9.36021 0.206133 7.10868C0.198398 4.99162 0.213867 2.872 0.0907616 0.757497C0.0836718 0.624301 0.0752929 0.489823 0.0920507 0.357267C1.06594 0.32909 2.04047 0.32845 3.015 0.336775C3.30891 0.357907 3.60797 0.314362 3.89865 0.368793C3.93475 0.862518 4.00049 1.35368 4.06687 1.84356C4.08363 1.98893 4.09395 2.13493 4.13262 2.27645C4.18611 2.23483 4.24219 2.19513 4.28537 2.14197C4.62891 1.70973 5.00209 1.29221 5.45713 0.97138C6.13904 0.461647 6.96662 0.180525 7.80322 0.0537319Z" fill="#92CA52"/>
<path d="M21.7587 0.192727C22.9588 0.18184 24.1602 0.177998 25.3616 0.191446C25.8469 0.201692 26.3335 0.183121 26.8189 0.210017C27.0619 0.954766 27.2829 1.70592 27.5233 2.45067C27.6162 2.77021 27.7335 3.08399 27.8102 3.40674C27.8211 3.60653 27.8456 3.82618 27.9887 3.97987L28.0016 3.99588C28.1273 4.42941 28.2884 4.85397 28.3954 5.29134C28.396 5.44055 28.425 5.58719 28.4785 5.72615C28.7537 6.60538 28.998 7.49805 29.3738 8.34142C29.4466 8.5092 29.533 8.67185 29.58 8.84923C29.6129 8.95617 29.6271 9.07528 29.7089 9.15981C29.7251 9.16878 29.756 9.18607 29.7721 9.19439C29.9068 8.89918 29.9893 8.58412 30.1111 8.28379C30.4727 7.37702 30.668 6.41839 30.9142 5.47705C31.1682 4.47936 31.4318 3.48422 31.6838 2.48653C31.7753 2.16378 31.8391 1.83271 31.9435 1.51445C31.997 1.42928 32.0473 1.33963 32.0692 1.24037C32.144 0.916343 32.2374 0.59744 32.3225 0.275975C32.7144 0.202332 33.1146 0.248439 33.511 0.240114C33.9326 0.227947 34.3521 0.277896 34.7737 0.263808C35.5078 0.26829 36.2413 0.258685 36.9754 0.278536C36.9664 0.38932 36.9657 0.500744 36.9664 0.611528C36.7388 1.28135 36.4533 1.93389 36.2071 2.59859C35.5046 4.36985 34.8169 6.14624 34.1137 7.9175C33.1714 10.3291 32.3431 12.7888 31.252 15.1409C30.9387 15.8113 30.5932 16.4703 30.1827 17.0882C29.7147 17.7894 29.143 18.4227 28.4863 18.9536C28.106 19.2437 27.6883 19.5024 27.2346 19.6567C27.1212 19.6868 27.0193 19.7233 26.9117 19.7547C26.5971 19.8681 26.2549 19.8905 25.9236 19.9154C24.9948 20.007 23.6839 19.7195 22.7641 19.6081C22.4064 19.5498 22.797 19.6279 21.6968 19.3948C21.8257 19.4012 22.3278 19.3602 22.4541 19.35C22.8627 19.2892 23.2166 19.2738 23.6065 19.1617C24.0184 19.0055 24.4193 18.8159 24.7925 18.5822C24.9839 18.4279 25.2314 18.3638 25.4157 18.2005C25.5601 18.0757 25.7212 17.9726 25.8682 17.8522C26.0886 17.6473 26.2665 17.4026 26.4276 17.1497C26.7222 16.7821 26.9523 16.3608 27.0909 15.9093C27.2037 15.6672 27.1798 15.3951 27.2449 15.1409C27.3126 14.8661 27.3435 14.5831 27.3583 14.3013C27.3693 14.1304 27.2971 13.9715 27.2449 13.8134C27.3474 13.6149 27.4125 13.3901 27.3944 13.166C27.3951 13.0795 27.3306 13.0174 27.2862 12.9514C26.9252 12.0613 26.5224 11.1847 26.1492 10.2984C25.1457 7.99242 24.1492 5.68325 23.1463 3.37664C22.679 2.31747 22.2421 1.24421 21.7587 0.192727Z" fill="#418DC9"/>
<path d="M32.2614 0.206142C32.5237 0.171562 32.7886 0.194615 33.0528 0.190773C34.4141 0.186291 35.776 0.198458 37.1372 0.204221C37.0805 0.339979 37.0322 0.47958 36.9664 0.611496C36.9658 0.500712 36.9664 0.389288 36.9755 0.278504C36.2413 0.258652 35.5079 0.268258 34.7737 0.263775C34.3522 0.277863 33.9326 0.227915 33.5111 0.240082C33.1147 0.248406 32.7145 0.2023 32.3226 0.275942C32.2375 0.597407 32.1441 0.916311 32.0693 1.24034C32.0474 1.33959 31.9971 1.42925 31.9436 1.51442C32.03 1.07384 32.1892 0.649918 32.2614 0.206142Z" fill="#406C9D"/>
<path d="M27.8101 3.40674C27.881 3.59437 27.9357 3.78712 27.9886 3.97987C27.8455 3.82618 27.821 3.60653 27.8101 3.40674Z" fill="#406C9D"/>
<path d="M28.3953 5.29126C28.7472 6.33442 29.0082 7.41152 29.4665 8.41626C29.5806 8.65256 29.6605 8.9023 29.7088 9.15973C29.627 9.0752 29.6128 8.95609 29.5799 8.84915C29.5329 8.67177 29.4465 8.50911 29.3737 8.34134C28.9979 7.49797 28.7536 6.6053 28.4784 5.72607C28.4249 5.58711 28.3959 5.44047 28.3953 5.29126Z" fill="#406C9D"/>
<path d="M27.286 12.9514C27.3305 13.0174 27.3949 13.0795 27.3943 13.1659C27.4123 13.3901 27.3472 13.6148 27.2448 13.8134C27.2216 13.8198 27.1758 13.8326 27.1526 13.839C27.2338 13.6808 27.3266 13.5226 27.3389 13.3427C27.3569 13.2088 27.3137 13.0795 27.286 12.9514Z" fill="#418DC9"/>
<path d="M22.9768 15.8407C23.4016 15.84 23.8276 15.8624 24.2504 15.8074C24.1467 15.8381 24.0429 15.8695 23.9346 15.8714C23.5389 15.8804 23.1425 15.8721 22.7461 15.8701C22.8221 15.8586 22.8995 15.8477 22.9768 15.8407Z" fill="#406C9D"/>
<path d="M9.96761 21.1641L9.98502 21.1698C9.9863 21.2287 9.97664 21.3075 9.90574 21.3216C9.87287 21.2684 9.91992 21.1929 9.96761 21.1641Z" fill="#406C9D"/>
<path d="M9.14331 23.5136C9.15298 23.3913 9.18392 23.2715 9.22452 23.1562C9.2213 23.2798 9.20261 23.4034 9.14331 23.5136Z" fill="#406C9D"/>
<path d="M19.1965 27.2092C19.4872 27.181 19.7798 27.2021 20.0712 27.1951C20.793 27.1951 21.5156 27.1893 22.2374 27.1989L22.2407 27.2233C21.5452 27.2303 20.8498 27.2226 20.155 27.2277C19.8353 27.2213 19.5136 27.2533 19.1965 27.2092Z" fill="#406C9D"/>
<path d="M2.02303 39.8206C2.31307 39.5863 2.51352 39.259 2.80678 39.0298C3.00401 39.334 3.24893 39.601 3.4713 39.8866C4.02882 40.5596 4.56829 41.2467 5.12968 41.9172C5.29854 42.1157 5.47063 42.3123 5.63112 42.5179C5.90762 42.5326 6.18155 42.4737 6.45741 42.4897C7.13288 42.5063 7.80899 42.5236 8.4851 42.5217C8.31173 42.1458 8.26339 41.7219 8.31753 41.3146C8.40196 40.9157 8.60112 40.5449 8.86216 40.233C9.19602 39.8399 9.72389 39.6247 10.2382 39.6657C10.6146 39.69 10.9659 39.8527 11.2733 40.0614C11.8573 40.4572 12.293 41.0252 12.6681 41.6118C12.8512 41.9102 13.0484 42.2022 13.1966 42.5204C13.3707 42.564 13.5505 42.5262 13.7271 42.5307C14.0139 42.5192 14.3007 42.5403 14.5869 42.5166C14.6024 42.881 14.5837 43.2453 14.5882 43.6091C14.2221 43.611 13.856 43.6078 13.4905 43.6225C13.4635 44.8981 13.4738 46.1744 13.4725 47.4506C13.4776 48.2774 13.459 49.1041 13.477 49.9301C13.0671 49.941 12.6572 49.9506 12.2479 49.9436C12.2646 47.8406 12.2408 45.737 12.2524 43.634C11.8077 43.6379 11.3636 43.6468 10.9195 43.6443C10.906 44.1342 10.9259 44.624 10.9143 45.1139C10.9002 45.5142 10.7448 45.9202 10.4374 46.1878C10.1087 46.4645 9.69682 46.6361 9.27337 46.6944C9.46221 46.9531 9.64268 47.2175 9.83282 47.4756C10.1622 47.9367 10.5528 48.3504 10.944 48.7595C11.0935 48.9228 11.2714 49.0605 11.4081 49.2353C11.3939 49.2936 11.3262 49.325 11.2869 49.3692C11.0497 49.5664 10.8293 49.7848 10.5914 49.9807C10.36 49.9724 10.1925 49.7688 10.0249 49.6298C9.38294 48.9625 8.83895 48.2088 8.31366 47.45C7.85024 46.7795 7.43581 46.0783 7.03813 45.3682C6.96272 45.2183 6.83253 45.0838 6.82286 44.9097C6.86089 44.8399 6.95241 44.8277 7.01364 44.7829C7.2721 44.6106 7.508 44.405 7.76774 44.2341C7.88311 44.3647 7.9437 44.5299 8.03522 44.6753C8.16219 44.8975 8.29755 45.1139 8.42516 45.3361C8.51411 45.4898 8.67137 45.6198 8.85829 45.6224C9.14124 45.6461 9.51313 45.6057 9.63688 45.3067C9.73421 44.7553 9.67298 44.1924 9.69102 43.636C9.20247 43.6103 8.71262 43.6308 8.22343 43.627C7.57825 43.6251 6.93243 43.6328 6.28725 43.6424C6.26727 44.0202 6.27565 44.3986 6.27436 44.7777C6.26405 46.4933 6.26663 48.2088 6.26018 49.925C5.85864 49.9276 5.4571 49.9462 5.05555 49.9308C5.04718 49.2437 5.05362 48.5566 5.0504 47.8694C5.04137 47.4423 5.07553 47.0126 5.03493 46.5868C4.40329 46.5868 3.771 46.5797 3.13936 46.5817C3.13227 46.8436 3.14065 47.1074 3.11036 47.3687C3.09811 47.4615 3.10069 47.564 3.04719 47.6459C2.8693 47.8182 2.60247 47.8835 2.36206 47.8253C2.04108 47.6536 1.78134 47.3911 1.54801 47.117C1.29729 46.8378 1.04012 46.5343 0.95698 46.159C0.907351 45.9317 1.04593 45.7114 1.22575 45.584C1.39075 45.4661 1.60344 45.4642 1.79874 45.4649C1.84643 45.4751 1.9096 45.4527 1.90251 45.3938C1.92893 44.8085 1.898 44.2206 1.91604 43.6366C1.36175 43.5783 0.79907 43.6321 0.24155 43.6116C0.242839 43.246 0.223503 42.8803 0.22866 42.516C1.62858 42.5384 3.03044 42.4865 4.42971 42.5422C3.62727 41.6604 2.77971 40.8196 1.95794 39.9558C1.96374 39.9032 1.97405 39.8482 2.02303 39.8206ZM9.9946 40.7319C9.73163 40.8388 9.60401 41.1251 9.56598 41.3889C9.49122 41.7001 9.62915 42.0062 9.76063 42.2822C9.81091 42.3796 9.84507 42.5294 9.98622 42.5204C10.6449 42.5467 11.3036 42.4865 11.963 42.4782C11.8489 42.2886 11.6974 42.1266 11.5711 41.946C11.2888 41.5676 10.9981 41.1846 10.6204 40.8945C10.4413 40.7767 10.2131 40.6269 9.9946 40.7319ZM3.14516 43.6353C3.13872 44.2385 3.1413 44.8424 3.14516 45.4456C3.77616 45.4584 4.40844 45.4527 5.03944 45.4456C5.03171 44.8366 5.06393 44.227 5.03686 43.6187C4.40651 43.6283 3.77552 43.6155 3.14516 43.6353Z" fill="#406C9D"/>
<path d="M18.5643 42.5353C20.7879 42.5212 23.0128 42.5596 25.2365 42.5225C26.3296 42.5122 27.4227 42.5154 28.5158 42.5276C29.6218 42.5269 30.7272 42.5173 31.8332 42.5135C32.9251 42.5225 34.0175 42.5301 35.1094 42.5263C36.3134 42.5276 37.5174 42.5359 38.722 42.5212C39.9969 42.5045 41.2717 42.5289 42.5473 42.5135C43.4567 42.5122 44.3668 42.5308 45.2762 42.5269C46.0039 42.5263 46.7309 42.525 47.4586 42.5346C47.6223 42.5385 47.788 42.5263 47.9517 42.5526C47.9568 42.9041 47.9362 43.2557 47.924 43.6072C47.5894 43.6136 47.2543 43.6066 46.9204 43.6271C46.8611 43.6489 46.8895 43.7257 46.8805 43.7731C46.8708 44.2803 46.903 44.7881 46.8669 45.2953C46.827 45.6596 46.6471 46.0041 46.3558 46.2328C46.0387 46.4915 45.6404 46.6394 45.2363 46.6893C45.449 46.9679 45.6423 47.2605 45.8531 47.541C46.3055 48.1494 46.8373 48.6937 47.3774 49.2246C47.3767 49.2386 47.3755 49.2655 47.3742 49.2796C47.0809 49.5031 46.8192 49.765 46.5395 50.0052C46.2321 49.8893 46.0052 49.6427 45.7867 49.409C45.1744 48.7103 44.6188 47.963 44.107 47.1882C43.6617 46.5331 43.2808 45.8376 42.8818 45.1537C42.8399 45.073 42.7793 44.993 42.7903 44.8976C43.0964 44.724 43.3665 44.4961 43.6552 44.2956C43.7003 44.2579 43.7841 44.2374 43.808 44.3123C43.9762 44.6414 44.1779 44.952 44.3584 45.2748C44.4377 45.4073 44.5421 45.5431 44.691 45.6013C44.9172 45.6443 45.1634 45.6417 45.3774 45.5482C45.534 45.479 45.6288 45.3177 45.6372 45.1505C45.6758 44.6446 45.6513 44.1362 45.6662 43.6297C45.0036 43.6028 44.3404 43.6245 43.6778 43.6252C43.0855 43.6226 42.4931 43.6354 41.9008 43.6354C41.8615 45.732 41.9053 47.8286 41.8853 49.9251C41.4851 49.9405 41.0848 49.9443 40.6852 49.9469C40.6504 49.5499 40.6865 49.1484 40.6775 48.75C40.6846 47.3694 40.673 45.9888 40.6756 44.6088C40.6672 44.2848 40.6891 43.9569 40.6659 43.6354C39.6682 43.6188 38.6698 43.6258 37.672 43.6149C37.2666 43.62 36.8599 43.5989 36.4571 43.638C36.4661 44.0126 36.4835 44.3879 36.4571 44.7612C36.6717 44.6651 36.8632 44.5146 37.0965 44.4615C37.7765 44.2873 38.5563 44.4903 39.0378 45.0058C39.3356 45.3055 39.5476 45.6936 39.6063 46.1136C39.6746 46.4844 39.5715 46.8571 39.4477 47.2048C39.2608 47.68 38.954 48.0962 38.6272 48.4849C38.4184 48.7206 38.2302 48.978 37.9859 49.1791C37.6276 48.9076 37.4071 48.7174 37.0559 48.4324C37.1951 48.2826 37.3414 48.1391 37.402 48.0674C37.6069 47.8638 37.7468 47.6358 37.926 47.4091C38.1419 47.112 38.3366 46.7771 38.3739 46.4057C38.3585 46.1649 38.3494 45.8902 38.1625 45.7115C37.9447 45.4739 37.5663 45.4156 37.2821 45.5629C36.9689 45.7115 36.7542 46.0035 36.5944 46.3006C36.4365 46.6042 36.4642 46.9544 36.4623 47.2842C36.4706 48.1673 36.4635 49.051 36.4848 49.9334C36.0697 49.961 35.6527 49.9559 35.2364 49.9559C35.2325 49.3859 35.228 48.816 35.2402 48.2461C35.0308 48.3178 34.8309 48.4286 34.6079 48.4516C34.189 48.4926 33.7552 48.4708 33.3608 48.3114C32.7246 48.0719 32.2844 47.4706 32.113 46.8309C31.9228 46.0874 32.2045 45.2549 32.7994 44.7695C33.2235 44.4231 33.7849 44.2322 34.334 44.2995C34.6382 44.3225 34.9373 44.4 35.2099 44.5377C35.2164 44.9219 35.2151 45.3061 35.2099 45.6904C34.9766 45.5578 34.731 45.447 34.4777 45.3593C34.1349 45.2517 33.7417 45.4336 33.5657 45.7384C33.295 46.1476 33.2879 46.7085 33.5516 47.1222C33.8384 47.4885 34.4152 47.5231 34.7742 47.242C34.9573 47.0876 35.1603 46.9167 35.2235 46.6772C35.2641 46.2814 35.2531 45.8985 35.2512 45.4976C35.2538 45.1902 35.2544 44.8784 35.2512 44.5736C35.2422 44.2566 35.2422 43.937 35.2325 43.6194C33.8293 43.6303 32.4256 43.6002 31.0224 43.6514C31.0411 44.1631 31.0456 44.6767 31.014 45.1877C30.9941 45.5213 30.8825 45.8562 30.6415 46.0964C30.3579 46.3743 29.9912 46.5702 29.6006 46.6464C29.5258 46.6592 29.4536 46.6778 29.3853 46.7092C29.6225 47.0089 29.8287 47.3303 30.0582 47.6358C30.316 47.9867 30.6292 48.2909 30.909 48.6245C31.0882 48.8365 31.2963 49.0222 31.4942 49.2169V49.2796C31.2241 49.5159 30.9631 49.7644 30.6924 50.0007C30.4436 49.9347 30.2644 49.7375 30.0808 49.571C29.4523 48.9146 28.9219 48.1744 28.4063 47.429C27.8578 46.6298 27.3724 45.7896 26.9045 44.9424C27.2274 44.7029 27.5523 44.4647 27.879 44.2329C28.0904 44.5697 28.2857 44.9181 28.4849 45.2626C28.5513 45.3747 28.6351 45.479 28.7427 45.554C28.8574 45.6372 29.0076 45.6135 29.141 45.6212C29.3292 45.6135 29.56 45.5981 29.6753 45.4265C29.8113 45.1922 29.7856 44.9117 29.801 44.6517C29.8133 44.3136 29.7972 43.9748 29.8094 43.6367C29.4201 43.5996 29.0282 43.6271 28.6376 43.6207C27.7991 43.6271 26.9599 43.6213 26.1214 43.6425C26.1182 44.87 26.115 46.0983 26.1175 47.3259C26.1117 48.1897 26.1298 49.0549 26.1072 49.9181C25.7115 49.9776 25.2951 49.9456 24.891 49.9578C24.8923 48.8019 24.9045 47.6448 24.8878 46.4883C24.3167 46.4863 23.7469 46.4947 23.1772 46.4908C22.989 46.3941 22.9142 46.2526 22.842 46.0752C22.7499 46.2084 22.572 46.4409 22.4289 46.5382C22.2059 46.6849 21.9423 46.7444 21.6986 46.8462C21.8578 47.144 22.075 47.4078 22.2658 47.6864C22.686 48.2467 23.1559 48.7699 23.6722 49.2438C23.4227 49.482 23.1379 49.6818 22.8788 49.911C22.8259 49.9731 22.7408 49.9603 22.6693 49.9699C22.2381 49.7196 21.9648 49.2892 21.6786 48.8973C21.0367 47.9214 20.3213 46.9929 19.7476 45.974C19.5846 45.6782 19.4015 45.3913 19.2694 45.0794C19.6161 44.8854 19.9249 44.6318 20.2703 44.4352C20.4882 44.8227 20.65 45.2453 20.9097 45.611C21.0554 45.7864 21.3009 45.757 21.5033 45.7358C21.5723 45.7275 21.6806 45.7057 21.6696 45.6142C21.6838 45.1409 21.6754 44.6677 21.6883 44.1938C21.6857 44.0088 21.7018 43.8205 21.6754 43.638C21.3989 43.5996 21.1095 43.6258 20.8285 43.6162C20.0712 43.6136 19.3139 43.6239 18.5565 43.6124C18.554 43.2621 18.5591 42.9105 18.5378 42.5609L18.5643 42.5353ZM22.9232 43.6226C22.8981 44.215 22.9078 44.8073 22.9142 45.3996C23.5665 45.4028 24.2181 45.3996 24.8704 45.4035C24.9052 44.8323 24.8897 44.2579 24.8916 43.6847C24.9097 43.6104 24.8182 43.6258 24.7769 43.6233C24.1588 43.6053 23.5413 43.6188 22.9232 43.6226Z" fill="#406C9D"/>
<path d="M25.885 15.2375C26.3955 14.8604 26.8009 14.359 27.1528 13.839C27.1618 13.8198 27.236 13.684 27.2276 13.6904C27.2804 13.8486 27.3694 14.1303 27.3584 14.3013C27.3436 14.5831 27.3127 14.8661 27.245 15.1408C27.1799 15.3951 27.2037 15.6672 27.0909 15.9093C26.9524 16.3607 26.7223 16.7821 26.4277 17.1497C26.2666 17.4026 26.0887 17.6472 25.8683 17.8522C25.7213 17.9726 25.5602 18.0757 25.4158 18.2005C25.2315 18.3638 24.984 18.4279 24.7925 18.5822C24.4194 18.8159 24.0185 19.0055 23.6066 19.1617C23.2263 19.2936 23.3191 19.2379 22.9008 19.3032C22.7661 19.3122 22.3652 19.3615 22.2318 19.375C22.052 19.3833 21.9978 19.3865 21.7987 19.3955L21.597 19.3974C21.5106 19.3974 21.4139 19.398 21.3308 19.4019C20.808 19.3839 19.7587 19.4172 18.984 19.5408C17.7008 19.731 16.4285 20.242 15.4971 21.1629C14.4942 22.1157 13.9786 23.481 13.8536 24.8347C13.8291 25.2657 13.8291 25.6986 13.8497 26.1296C13.9599 27.482 14.404 28.8588 15.3502 29.8655C15.9979 30.5789 16.8513 31.0924 17.7671 31.3889C18.5921 31.6489 19.461 31.7437 20.324 31.7507C20.9009 31.7411 21.4732 31.6528 22.0423 31.5663C22.1171 31.5407 22.2653 31.5605 22.2486 31.4427C22.2808 30.4405 22.2595 29.4364 22.2608 28.433C22.255 28.0295 22.2718 27.6255 22.2408 27.2233L22.2376 27.199C21.5157 27.1894 20.7932 27.1951 20.0713 27.1951C19.78 27.2022 19.4874 27.1811 19.1967 27.2092C19.1877 27.2099 19.1696 27.2118 19.1606 27.2124C19.1709 26.6156 19.1587 26.0188 19.1587 25.4213C19.1542 24.7413 19.1684 24.0599 19.1535 23.3798C20.5786 23.3709 22.0043 23.3907 23.43 23.3824C24.5547 23.392 25.6807 23.3645 26.8054 23.3926C26.8144 25.5603 26.8028 27.7279 26.8048 29.8949C26.7957 31.3614 26.8299 32.8272 26.7983 34.293C25.8702 34.5485 24.9408 34.8046 23.992 34.9711C22.8925 35.1863 21.7761 35.3131 20.6559 35.3515C19.7201 35.4028 18.7816 35.3451 17.849 35.2593C16.0843 35.0614 14.317 34.5786 12.8204 33.6008C11.8993 33.0039 11.0962 32.2246 10.4833 31.3159C9.81105 30.3464 9.37342 29.2283 9.12849 28.0801C8.8333 26.613 8.80945 25.089 9.10787 23.6206C9.11625 23.5835 9.12785 23.5482 9.14332 23.5137C9.20261 23.4035 9.22131 23.2799 9.22453 23.1563C9.36375 22.5262 9.60416 21.9185 9.87615 21.3332L9.9058 21.3217C9.9767 21.3076 9.98636 21.2288 9.98508 21.1699C9.98185 21.1091 10.0154 21.0559 10.0405 21.0041C10.7991 19.5978 11.9399 18.4029 13.2973 17.5557C14.656 16.7213 16.1919 16.2 17.7594 15.9266C18.3163 15.842 18.8738 15.7498 19.4384 15.7402C20.266 15.7185 21.0949 15.7255 21.9224 15.762C22.2724 15.8043 22.6256 15.8004 22.9769 15.8408C22.8995 15.8478 23.1831 15.8305 23.1071 15.8414C23.5028 15.844 23.5389 15.8459 23.9347 15.8369C24.1171 15.8158 24.4103 15.8036 24.5618 15.7754C24.6636 15.7505 24.7455 15.7287 24.8364 15.7024C25.2076 15.6045 25.5731 15.4636 25.885 15.2375Z" fill="#1BB99D"/>
<path d="M37.5625 15.6165C38.5815 15.5346 39.6102 15.6114 40.615 15.7901C42.2424 16.0949 43.8164 16.7942 45.0436 17.9129C45.6017 18.4098 46.0967 18.9759 46.4957 19.6073C47.0416 20.4302 47.4393 21.3446 47.7023 22.2937C47.9594 23.244 48.1148 24.225 48.1135 25.2099C48.1244 26.871 47.855 28.5513 47.1841 30.0793C46.5537 31.5246 45.5315 32.8047 44.2308 33.7069C42.722 34.7706 40.8915 35.3239 39.0578 35.4552C38.0059 35.4936 36.9418 35.4859 35.9067 35.2752C34.2412 34.9365 32.6305 34.1815 31.4188 32.9788C30.3373 31.9523 29.5703 30.6261 29.1082 29.2192C28.813 28.3099 28.6332 27.3622 28.5797 26.4087C28.5236 25.8016 28.5571 25.1926 28.6125 24.5881C28.7614 22.8463 29.3099 21.1218 30.298 19.6688C31.1204 18.4149 32.2844 17.3929 33.6199 16.7071C34.8381 16.0725 36.198 15.7356 37.5625 15.6165ZM37.8094 19.2064C37.0855 19.2673 36.3895 19.549 35.7997 19.9672C35.353 20.2983 34.9721 20.7164 34.6756 21.1858C34.1813 21.9504 33.8758 22.8226 33.7063 23.7127C33.5593 24.5907 33.4485 25.4878 33.5548 26.3773C33.6573 27.4877 33.9074 28.6038 34.4591 29.5842C34.8091 30.231 35.3234 30.7849 35.9267 31.2063C36.479 31.5867 37.1339 31.7986 37.7984 31.8723C38.7497 32.0087 39.7404 31.7935 40.5692 31.3158C41.1764 30.9463 41.6856 30.4251 42.0504 29.818C42.4448 29.1879 42.7072 28.4835 42.8773 27.763C43.1293 26.7256 43.1661 25.6479 43.0906 24.5868C43.0159 23.7236 42.8103 22.8693 42.4655 22.0727C42.1819 21.4247 41.7816 20.8234 41.2692 20.3316C40.7097 19.7751 39.9737 19.4081 39.2003 19.2532C38.742 19.1776 38.2728 19.1648 37.8094 19.2064Z" fill="#C1569C"/>
<path d="M47.1401 15.9092C48.7869 15.8804 50.4337 15.8989 52.0805 15.9021C52.1488 15.9137 52.2596 15.8861 52.2854 15.9739C52.4227 16.2883 52.5052 16.6219 52.6077 16.9485C53.1504 18.7127 53.6841 20.4789 54.2197 22.2456C54.9196 24.5324 55.6151 26.8224 56.1881 29.145C56.3021 29.6048 56.3698 30.0754 56.531 30.5224C56.5458 30.5295 56.5741 30.5442 56.5883 30.5512C56.7907 29.6483 57.0092 28.7486 57.2599 27.8585C57.7098 26.1423 58.2319 24.4472 58.7733 22.7579C59.481 20.4968 60.1932 18.2376 60.9183 15.9816C60.9338 15.8849 61.0401 15.9053 61.1129 15.9028C62.6824 15.8983 64.2518 15.8887 65.8206 15.9047C65.887 15.89 65.9269 15.9489 65.8941 16.0078C65.3527 17.5677 64.7996 19.1245 64.2454 20.6793C63.0729 23.9862 61.8973 27.2924 60.7256 30.5993C60.1816 32.0843 59.675 33.5834 59.1175 35.0633C59.0981 35.1728 58.9718 35.1734 58.8848 35.1721C57.8626 35.1817 56.841 35.1734 55.8188 35.1805C55.1742 35.1792 54.5297 35.1945 53.8858 35.1676C53.7923 35.1484 53.6435 35.1753 53.619 35.053C53.385 34.4011 53.1691 33.7435 52.9499 33.0864C51.8143 29.7757 50.7134 26.4522 49.5829 23.139C49.0338 21.5009 48.4743 19.866 47.9252 18.228C47.6661 17.4538 47.4128 16.6783 47.1401 15.9092Z" fill="#F17024"/>
</g>
<defs>
<clipPath id="clip0_164_238">
<rect width="66" height="50" fill="white"/>
</clipPath>
</defs>
</svg>
